<svg xmlns="http://www.w3.org/2000/svg" viewBox="0 0 550 500"><title>age-hover-shapes</title><g id="mockup"><rect x="5.7" y="5.36" width="538.6" height="489.29" style="fill:#fff3ee;stroke:#ffb9a6;stroke-miterlimit:10;stroke-width:3px"/><path d="M251.44,42.05H257l8.72,26.79h-5l-2.09-7.25h-9l-2.09,7.25h-4.83Zm-.7,15.81h6.84l-.94-3.28c-.86-2.82-1.64-5.89-2.42-8.84h-.16c-.74,3-1.52,6-2.38,8.84Z" style="fill:#ffb9a6"/><path d="M267.29,72.49c0-1.68,1-3.16,2.87-4.3V68a3.76,3.76,0,0,1-1.8-3.36,4.82,4.82,0,0,1,2.21-3.72v-.17A6.79,6.79,0,0,1,268,55.45c0-4.63,3.72-7.22,7.94-7.22a8.91,8.91,0,0,1,2.95.5h7.22v3.48h-3.69a5.42,5.42,0,0,1,1.15,3.4c0,4.46-3.36,6.84-7.63,6.84a7.36,7.36,0,0,1-2.74-.53,2.31,2.31,0,0,0-1,1.92c0,1.15.82,1.85,3.27,1.85H279c4.83,0,7.37,1.47,7.37,5,0,4-4.18,7.08-10.73,7.08C270.86,77.73,267.29,76,267.29,72.49Zm14.54-1.07c0-1.55-1.26-2-3.56-2h-2.74a10.88,10.88,0,0,1-2.75-.29,3.4,3.4,0,0,0-1.56,2.66c0,1.81,2,2.87,5.17,2.87S281.83,73.14,281.83,71.42Zm-2.45-16c0-2.5-1.52-4-3.49-4s-3.52,1.43-3.52,4,1.56,4,3.52,4S279.38,58,279.38,55.45Z" style="fill:#ffb9a6"/><path d="M288,58.8c0-6.55,4.55-10.57,9.26-10.57,5.45,0,8.32,3.94,8.32,9.55a11.07,11.07,0,0,1-.21,2.29H292.57c.41,3.57,2.7,5.62,5.94,5.62a8.42,8.42,0,0,0,4.67-1.48l1.6,3a12.69,12.69,0,0,1-6.88,2.17C292.32,69.33,288,65.44,288,58.8Zm13.48-1.92c0-3.11-1.35-5-4.1-5-2.37,0-4.42,1.76-4.83,5Z" style="fill:#ffb9a6"/><path d="M55,161.28l4-3.25a6.46,6.46,0,0,0,4.82,2.77c2.38,0,3.8-1,3.8-2.85s-1.1-3.08-5.77-3.08l.87-4.44c4.9,0,6.17-1.42,6.17-3.4,0-1.35-1-2.22-2.69-2.22-1.11,0-2.06.48-3.64,1.43l-3-4a13.13,13.13,0,0,1,7.84-2.37c4.67,0,8,2.45,8,6.17,0,3.17-1.26,5.27-5.22,6.65v.16A5.5,5.5,0,0,1,73.9,158c0,5.15-4.36,7.84-10,7.84A10.83,10.83,0,0,1,55,161.28Z" style="fill:#ff5b42"/><path d="M77.93,160.33H83l2.77-13.7H81.18l.79-3.95a17.33,17.33,0,0,0,6.73-2.38h4.67l-4,20h4.44l-1,5.07H76.9Z" style="fill:#ff5b42"/><path d="M98.83,148.77c0-5.78,3.17-10.05,7.76-10.05,3.09,0,5.7,2.45,5.7,6.41,0,5.78-3.17,10.05-7.76,10.05C101.44,155.18,98.83,152.73,98.83,148.77Zm22.33-10h3.56l-18.61,27.07h-3.56Zm-13.3,6.41c0-1.74-.56-2.77-1.67-2.77-1.58,0-2.93,2.37-2.93,6.25,0,1.74.56,2.77,1.67,2.77C106.51,151.46,107.86,149.09,107.86,145.21Zm7.6,14.25c0-5.78,3.16-10.05,7.75-10.05,3.09,0,5.7,2.45,5.7,6.41,0,5.78-3.16,10.05-7.75,10.05C118.07,165.87,115.46,163.42,115.46,159.46Zm9-3.56c0-1.75-.55-2.77-1.66-2.77-1.59,0-2.93,2.37-2.93,6.25,0,1.74.55,2.77,1.66,2.77C123.13,162.15,124.48,159.78,124.48,155.9Z" style="fill:#ff5b42"/><path d="M136.51,159.24c0-4.15,2.7-6.51,5.73-6.51s5.72,2.36,5.72,6.51-2.7,6.46-5.72,6.46S136.51,163.34,136.51,159.24Zm9.29,0c0-2.85-1.42-4.78-3.56-4.78s-3.56,1.93-3.56,4.78,1.45,4.73,3.56,4.73S145.8,162.06,145.8,159.24Z" style="fill:#1e1e1e"/><path d="M151.57,154.74h-1.68v-1.58l1.68-.13v-1.95c0-2.52,1.14-4.1,3.61-4.1a5.55,5.55,0,0,1,2.06.41l-.46,1.6a3.5,3.5,0,0,0-1.39-.31c-1.18,0-1.73.82-1.73,2.4V153h2.62v1.71h-2.62V165.4h-2.09Z" style="fill:#1e1e1e"/><path d="M163.73,153h1.73l.17,1.43h.08a6.4,6.4,0,0,1,3.94-1.73c3.18,0,4.89,2.47,4.89,6.31,0,4.19-2.52,6.66-5.35,6.66a5.74,5.74,0,0,1-3.43-1.42l.05,2.16v4.17h-2.08Zm8.64,6c0-2.72-.91-4.56-3.25-4.56a5.24,5.24,0,0,0-3.31,1.68v6.49a4.9,4.9,0,0,0,3,1.3C170.87,164,172.37,162.09,172.37,159Z" style="fill:#1e1e1e"/><path d="M176.92,159.24c0-4,2.73-6.51,5.55-6.51,3.15,0,4.93,2.26,4.93,5.8a8.19,8.19,0,0,1-.07,1.19H179c.16,2.62,1.76,4.3,4.13,4.3a5.58,5.58,0,0,0,3.07-1l.74,1.37a7.34,7.34,0,0,1-4.07,1.27C179.54,165.7,176.92,163.28,176.92,159.24Zm8.65-1c0-2.49-1.12-3.84-3-3.84-1.73,0-3.31,1.4-3.56,3.84Z" style="fill:#1e1e1e"/><path d="M189.54,159.24c0-4.15,2.69-6.51,5.72-6.51s5.72,2.36,5.72,6.51-2.69,6.46-5.72,6.46S189.54,163.34,189.54,159.24Zm9.28,0c0-2.85-1.42-4.78-3.56-4.78s-3.56,1.93-3.56,4.78,1.45,4.73,3.56,4.73S198.82,162.06,198.82,159.24Z" style="fill:#1e1e1e"/><path d="M204.24,153H206l.17,1.43h.08a6.4,6.4,0,0,1,3.94-1.73c3.18,0,4.89,2.47,4.89,6.31,0,4.19-2.52,6.66-5.34,6.66a5.74,5.74,0,0,1-3.44-1.42l0,2.16v4.17h-2.08Zm8.65,6c0-2.72-.92-4.56-3.26-4.56a5.24,5.24,0,0,0-3.31,1.68v6.49a4.92,4.92,0,0,0,3,1.3C211.38,164,212.89,162.09,212.89,159Z" style="fill:#1e1e1e"/><path d="M218.35,162.9V147.29h2.09v15.77c0,.66.28.91.58.91a1.79,1.79,0,0,0,.46-.05l.28,1.58a2.8,2.8,0,0,1-1.2.2C219,165.7,218.35,164.71,218.35,162.9Z" style="fill:#1e1e1e"/><path d="M223.92,159.24c0-4,2.72-6.51,5.55-6.51,3.15,0,4.93,2.26,4.93,5.8a6.88,6.88,0,0,1-.08,1.19H226c.15,2.62,1.76,4.3,4.12,4.3a5.64,5.64,0,0,0,3.08-1l.74,1.37a7.34,7.34,0,0,1-4.07,1.27C226.54,165.7,223.92,163.28,223.92,159.24Zm8.65-1c0-2.49-1.12-3.84-3-3.84-1.73,0-3.31,1.4-3.56,3.84Z" style="fill:#1e1e1e"/><path d="M241.77,162.19c0-2.7,2.32-4,7.58-4.63,0-1.58-.51-3.1-2.54-3.1a6.73,6.73,0,0,0-3.69,1.32l-.81-1.45a9.13,9.13,0,0,1,4.86-1.6c3,0,4.29,2,4.29,5.09v7.58h-1.73l-.17-1.48h-.08a6.57,6.57,0,0,1-4.1,1.78A3.36,3.36,0,0,1,241.77,162.19Zm7.58.18v-3.43c-4.12.5-5.54,1.52-5.54,3.1,0,1.4,1,2,2.19,2A5,5,0,0,0,249.35,162.37Z" style="fill:#1e1e1e"/><path d="M254.41,167.76a3.59,3.59,0,0,1,1.81-2.8v-.1a2.28,2.28,0,0,1-1.1-2,2.93,2.93,0,0,1,1.35-2.29v-.1a4.36,4.36,0,0,1,3.06-7.73,5.14,5.14,0,0,1,1.75.3h4.3v1.61H263a3.6,3.6,0,0,1,1,2.54,4.24,4.24,0,0,1-4.52,4.3,4.3,4.3,0,0,1-1.86-.43,1.86,1.86,0,0,0-.79,1.47c0,.79.51,1.35,2.19,1.35h2.39c2.87,0,4.32.89,4.32,2.95,0,2.29-2.41,4.27-6.25,4.27C256.5,171.09,254.41,169.9,254.41,167.76Zm9.34-.63c0-1.15-.89-1.53-2.5-1.53h-2.13a6,6,0,0,1-1.6-.2,2.58,2.58,0,0,0-1.28,2.08c0,1.32,1.35,2.16,3.59,2.16S263.75,168.42,263.75,167.13Zm-1.61-10a2.63,2.63,0,1,0-5.23,0,2.63,2.63,0,1,0,5.23,0Z" style="fill:#1e1e1e"/><path d="M266.9,159.24c0-4,2.72-6.51,5.54-6.51,3.16,0,4.94,2.26,4.94,5.8a8.05,8.05,0,0,1-.08,1.19H269c.15,2.62,1.75,4.3,4.12,4.3a5.64,5.64,0,0,0,3.08-1l.74,1.37a7.36,7.36,0,0,1-4.07,1.27C269.52,165.7,266.9,163.28,266.9,159.24Zm8.65-1c0-2.49-1.12-3.84-3.05-3.84-1.73,0-3.31,1.4-3.57,3.84Z" style="fill:#1e1e1e"/><path d="M279.05,164l1.05-1.4a5.58,5.58,0,0,0,3.64,1.47c1.62,0,2.44-.86,2.44-1.93,0-1.27-1.48-1.83-2.83-2.34-1.75-.64-3.68-1.48-3.68-3.56s1.57-3.51,4.24-3.51a6.13,6.13,0,0,1,3.84,1.4l-1,1.32a4.56,4.56,0,0,0-2.82-1.09c-1.55,0-2.27.84-2.27,1.78,0,1.17,1.35,1.6,2.75,2.13,1.78.67,3.77,1.4,3.77,3.74,0,2-1.61,3.69-4.53,3.69A7.48,7.48,0,0,1,279.05,164Z" style="fill:#1e1e1e"/><path d="M295.87,162.37h3.51V153h-3v-2.31a11.26,11.26,0,0,0,4-1.48h2.75v13.13h3v3H295.87Z" style="fill:#1e1e1e"/><path d="M308.58,161.28a4.42,4.42,0,0,1,2.75-4v-.1a4.68,4.68,0,0,1-2.16-3.82c0-2.75,2.16-4.45,5.16-4.45s4.91,1.75,4.91,4.42a4.35,4.35,0,0,1-2.11,3.54v.1a4.64,4.64,0,0,1,2.8,4.22c0,2.55-2.29,4.48-5.73,4.48C311,165.7,308.58,163.9,308.58,161.28Zm7.86-.18c0-1.43-1.37-2-3.41-2.83a3.63,3.63,0,0,0-1.24,2.57,2.29,2.29,0,0,0,2.49,2.27A1.92,1.92,0,0,0,316.44,161.1Zm-.23-7.48a1.9,1.9,0,0,0-2-2.09,1.71,1.71,0,0,0-1.8,1.86c0,1.32,1.12,2,2.77,2.59A3.56,3.56,0,0,0,316.21,153.62Z" style="fill:#1e1e1e"/><path d="M322,157.64h6.26v2.64H322Z" style="fill:#1e1e1e"/><path d="M330.32,163.26c4.12-3.89,7-6.66,7-8.95a2.18,2.18,0,0,0-2.29-2.45,4.12,4.12,0,0,0-2.87,1.66l-2-2a6.81,6.81,0,0,1,5.41-2.57c3.18,0,5.35,2,5.35,5.14,0,2.72-2.55,5.62-5.17,8.37a23.12,23.12,0,0,1,2.7-.21h3.25v3.16H330.32Z" style="fill:#1e1e1e"/><path d="M343.9,163.77l2-2.24a3.58,3.58,0,0,0,2.49,1.14c1.81,0,3.21-1.27,3.33-5a4.54,4.54,0,0,1-3.23,1.7c-2.74,0-4.8-1.57-4.8-5a5.19,5.19,0,0,1,5.36-5.42c3.13,0,6.13,2.34,6.13,8,0,6-3.15,8.75-6.53,8.75A6.59,6.59,0,0,1,343.9,163.77Zm7.74-8.68c-.33-2.54-1.38-3.35-2.52-3.35s-2,.79-2,2.62.92,2.34,2.14,2.34A2.8,2.8,0,0,0,351.64,155.09Z" style="fill:#1e1e1e"/><path d="M362.5,159.24c0-4.15,2.69-6.51,5.72-6.51s5.72,2.36,5.72,6.51-2.69,6.46-5.72,6.46S362.5,163.34,362.5,159.24Zm9.28,0c0-2.85-1.42-4.78-3.56-4.78s-3.56,1.93-3.56,4.78,1.45,4.73,3.56,4.73S371.78,162.06,371.78,159.24Z" style="fill:#1e1e1e"/><path d="M375.62,153h2.13l1.83,7.15c.29,1.17.51,2.29.74,3.44h.1c.29-1.15.54-2.29.84-3.44l1.91-7.15h2l1.93,7.15c.31,1.17.58,2.29.86,3.44h.11c.28-1.15.51-2.27.76-3.44l1.81-7.15h2l-3.31,12.37h-2.54L385,158.76c-.31-1.17-.54-2.32-.84-3.56h-.1c-.28,1.24-.54,2.41-.87,3.58l-1.73,6.62h-2.44Z" style="fill:#1e1e1e"/><path d="M395.35,153h1.73l.18,1.78h.08a5.82,5.82,0,0,1,4.14-2.08c2.6,0,3.77,1.68,3.77,4.83v7.84h-2.09v-7.56c0-2.31-.71-3.31-2.34-3.31-1.27,0-2.14.67-3.38,1.91v9h-2.09Z" style="fill:#1e1e1e"/><path d="M413,164l1-1.4a5.58,5.58,0,0,0,3.64,1.47c1.62,0,2.44-.86,2.44-1.93,0-1.27-1.48-1.83-2.83-2.34-1.75-.64-3.68-1.48-3.68-3.56s1.57-3.51,4.24-3.51a6.11,6.11,0,0,1,3.84,1.4l-1,1.32a4.56,4.56,0,0,0-2.82-1.09c-1.55,0-2.26.84-2.26,1.78,0,1.17,1.34,1.6,2.74,2.13,1.78.67,3.77,1.4,3.77,3.74,0,2-1.61,3.69-4.53,3.69A7.48,7.48,0,0,1,413,164Z" style="fill:#1e1e1e"/><path d="M424.85,161.58v-6.84H423v-1.58L425,153l.25-3.46H427V153h3.34v1.71H427v6.87c0,1.52.49,2.39,1.91,2.39a4.61,4.61,0,0,0,1.4-.33l.41,1.57a7.64,7.64,0,0,1-2.29.46C425.74,165.7,424.85,164,424.85,161.58Z" style="fill:#1e1e1e"/><path d="M431.82,159.24c0-4.15,2.7-6.51,5.72-6.51s5.73,2.36,5.73,6.51-2.7,6.46-5.73,6.46S431.82,163.34,431.82,159.24Zm9.28,0c0-2.85-1.42-4.78-3.56-4.78s-3.56,1.93-3.56,4.78,1.45,4.73,3.56,4.73S441.1,162.06,441.1,159.24Z" style="fill:#1e1e1e"/><path d="M445.6,159.24c0-4.15,2.78-6.51,6-6.51a5.14,5.14,0,0,1,3.61,1.45l-1.07,1.37a3.65,3.65,0,0,0-2.47-1.09c-2.24,0-3.86,1.93-3.86,4.78s1.55,4.73,3.81,4.73a4.4,4.4,0,0,0,2.9-1.24l.92,1.39a6,6,0,0,1-4,1.58C448.12,165.7,445.6,163.34,445.6,159.24Z" style="fill:#1e1e1e"/><path d="M458.12,147.29h2.06v12.26h.07l5.27-6.52h2.31l-4.14,5,4.7,7.41H466.1l-3.61-6-2.31,2.7v3.26h-2.06Z" style="fill:#1e1e1e"/><path d="M470.6,164.12a1.52,1.52,0,1,1,3,0,1.52,1.52,0,1,1-3,0Z" style="fill:#1e1e1e"/><path d="M57.67,235c0-10.3,5.38-16.94,12.9-16.94a8,8,0,0,1,6.49,3.56l-4,3.32a3.52,3.52,0,0,0-2.93-1.82c-2.65,0-5.07,2.14-6.1,6.85a7.32,7.32,0,0,1,4.59-2.18c3.49,0,6.26,1.94,6.26,6.57,0,4.87-3.72,9.74-9.11,9.74C60.84,244.12,57.67,240.44,57.67,235Zm11.48-.12c0-1.78-.79-2.81-2.22-2.81-1,0-2.06.55-3.36,2.17,0,.48,0,1,0,1.43,0,2.49,1.11,3.76,2.61,3.76C68.28,239.45,69.15,236.76,69.15,234.9Z" style="fill:#ff5b42"/><path d="M76.43,240.08c7.44-6,13.06-10.21,13.06-14.41a2.41,2.41,0,0,0-2.61-2.61c-1.35,0-2.38.79-3.72,1.82l-3-3.64a11.8,11.8,0,0,1,7.52-3.16c4.91,0,8,2.77,8,7,0,4.91-4,8.47-9.19,13.3h7.6l-1,5.3H75.72Z" style="fill:#ff5b42"/><path d="M98.83,227c0-5.78,3.17-10.05,7.76-10.05,3.09,0,5.7,2.45,5.7,6.41,0,5.78-3.17,10.05-7.76,10.05C101.44,233.43,98.83,231,98.83,227Zm22.33-10h3.56l-18.61,27.07h-3.56Zm-13.3,6.41c0-1.74-.56-2.77-1.67-2.77-1.58,0-2.93,2.37-2.93,6.25,0,1.74.56,2.77,1.67,2.77C106.51,229.71,107.86,227.34,107.86,223.46Zm7.6,14.25c0-5.78,3.16-10.06,7.75-10.06,3.09,0,5.7,2.46,5.7,6.42,0,5.77-3.16,10.05-7.75,10.05C118.07,244.12,115.46,241.67,115.46,237.71Zm9-3.56c0-1.75-.55-2.78-1.66-2.78-1.59,0-2.93,2.38-2.93,6.26,0,1.74.55,2.77,1.66,2.77C123.13,240.4,124.48,238,124.48,234.15Z" style="fill:#ff5b42"/><path d="M136.51,237.49c0-4.15,2.7-6.51,5.73-6.51s5.72,2.36,5.72,6.51-2.7,6.46-5.72,6.46S136.51,241.58,136.51,237.49Zm9.29,0c0-2.85-1.42-4.78-3.56-4.78s-3.56,1.93-3.56,4.78,1.45,4.73,3.56,4.73S145.8,240.31,145.8,237.49Z" style="fill:#1e1e1e"/><path d="M151.57,233h-1.68v-1.58l1.68-.13v-2c0-2.51,1.14-4.09,3.61-4.09a5.55,5.55,0,0,1,2.06.41l-.46,1.6a3.34,3.34,0,0,0-1.39-.31c-1.18,0-1.73.82-1.73,2.39v2h2.62V233h-2.62v10.65h-2.09Z" style="fill:#1e1e1e"/><path d="M163.73,231.28h1.73l.17,1.43h.08a6.4,6.4,0,0,1,3.94-1.73c3.18,0,4.89,2.46,4.89,6.31,0,4.19-2.52,6.66-5.35,6.66a5.74,5.74,0,0,1-3.43-1.42l.05,2.16v4.17h-2.08Zm8.64,6c0-2.73-.91-4.56-3.25-4.56a5.24,5.24,0,0,0-3.31,1.68v6.49a4.88,4.88,0,0,0,3,1.29C170.87,242.19,172.37,240.34,172.37,237.29Z" style="fill:#1e1e1e"/><path d="M176.92,237.49c0-4.05,2.73-6.51,5.55-6.51,3.15,0,4.93,2.26,4.93,5.8a8.19,8.19,0,0,1-.07,1.19H179c.16,2.62,1.76,4.3,4.13,4.3a5.51,5.51,0,0,0,3.07-1l.74,1.38a7.42,7.42,0,0,1-4.07,1.27C179.54,244,176.92,241.53,176.92,237.49Zm8.65-1c0-2.49-1.12-3.84-3-3.84-1.73,0-3.31,1.4-3.56,3.84Z" style="fill:#1e1e1e"/><path d="M189.54,237.49c0-4.15,2.69-6.51,5.72-6.51s5.72,2.36,5.72,6.51-2.69,6.46-5.72,6.46S189.54,241.58,189.54,237.49Zm9.28,0c0-2.85-1.42-4.78-3.56-4.78s-3.56,1.93-3.56,4.78,1.45,4.73,3.56,4.73S198.82,240.31,198.82,237.49Z" style="fill:#1e1e1e"/><path d="M204.24,231.28H206l.17,1.43h.08a6.4,6.4,0,0,1,3.94-1.73c3.18,0,4.89,2.46,4.89,6.31,0,4.19-2.52,6.66-5.34,6.66a5.74,5.74,0,0,1-3.44-1.42l0,2.16v4.17h-2.08Zm8.65,6c0-2.73-.92-4.56-3.26-4.56a5.24,5.24,0,0,0-3.31,1.68v6.49a4.9,4.9,0,0,0,3,1.29C211.38,242.19,212.89,240.34,212.89,237.29Z" style="fill:#1e1e1e"/><path d="M218.35,241.15V225.53h2.09V241.3c0,.67.28.92.58.92a1.79,1.79,0,0,0,.46-.05l.28,1.58a3,3,0,0,1-1.2.2C219,244,218.35,243,218.35,241.15Z" style="fill:#1e1e1e"/><path d="M223.92,237.49c0-4.05,2.72-6.51,5.55-6.51,3.15,0,4.93,2.26,4.93,5.8a6.88,6.88,0,0,1-.08,1.19H226c.15,2.62,1.76,4.3,4.12,4.3a5.57,5.57,0,0,0,3.08-1l.74,1.38a7.42,7.42,0,0,1-4.07,1.27C226.54,244,223.92,241.53,223.92,237.49Zm8.65-1c0-2.49-1.12-3.84-3-3.84-1.73,0-3.31,1.4-3.56,3.84Z" style="fill:#1e1e1e"/><path d="M241.77,240.44c0-2.7,2.32-4,7.58-4.63,0-1.58-.51-3.1-2.54-3.1a6.73,6.73,0,0,0-3.69,1.32l-.81-1.45a9.13,9.13,0,0,1,4.86-1.6c3,0,4.29,2,4.29,5.08v7.58h-1.73l-.17-1.47h-.08a6.57,6.57,0,0,1-4.1,1.78A3.36,3.36,0,0,1,241.77,240.44Zm7.58.18v-3.44c-4.12.51-5.54,1.53-5.54,3.11,0,1.4,1,2,2.19,2A5,5,0,0,0,249.35,240.62Z" style="fill:#1e1e1e"/><path d="M254.41,246a3.59,3.59,0,0,1,1.81-2.8v-.1a2.28,2.28,0,0,1-1.1-2,2.91,2.91,0,0,1,1.35-2.29v-.1a4.36,4.36,0,0,1,3.06-7.73,4.91,4.91,0,0,1,1.75.3h4.3v1.6H263a3.62,3.62,0,0,1,1,2.55,4.24,4.24,0,0,1-4.52,4.3,4.31,4.31,0,0,1-1.86-.44,1.9,1.9,0,0,0-.79,1.48c0,.79.51,1.35,2.19,1.35h2.39c2.87,0,4.32.89,4.32,2.95,0,2.29-2.41,4.27-6.25,4.27C256.5,249.34,254.41,248.15,254.41,246Zm9.34-.64c0-1.14-.89-1.52-2.5-1.52h-2.13a5.68,5.68,0,0,1-1.6-.21,2.61,2.61,0,0,0-1.28,2.09c0,1.32,1.35,2.16,3.59,2.16S263.75,246.67,263.75,245.37Zm-1.61-10a2.63,2.63,0,1,0-5.23,0,2.63,2.63,0,1,0,5.23,0Z" style="fill:#1e1e1e"/><path d="M266.9,237.49c0-4.05,2.72-6.51,5.54-6.51,3.16,0,4.94,2.26,4.94,5.8a8.05,8.05,0,0,1-.08,1.19H269c.15,2.62,1.75,4.3,4.12,4.3a5.57,5.57,0,0,0,3.08-1l.74,1.38a7.44,7.44,0,0,1-4.07,1.27C269.52,244,266.9,241.53,266.9,237.49Zm8.65-1c0-2.49-1.12-3.84-3.05-3.84-1.73,0-3.31,1.4-3.57,3.84Z" style="fill:#1e1e1e"/><path d="M279.05,242.25l1.05-1.4a5.58,5.58,0,0,0,3.64,1.47c1.62,0,2.44-.86,2.44-1.93,0-1.27-1.48-1.83-2.83-2.34-1.75-.64-3.68-1.48-3.68-3.56s1.57-3.51,4.24-3.51a6.13,6.13,0,0,1,3.84,1.4l-1,1.32a4.57,4.57,0,0,0-2.82-1.1c-1.55,0-2.27.84-2.27,1.79,0,1.17,1.35,1.6,2.75,2.13,1.78.66,3.77,1.4,3.77,3.74,0,2-1.61,3.69-4.53,3.69A7.48,7.48,0,0,1,279.05,242.25Z" style="fill:#1e1e1e"/><path d="M294.64,241.66l1.73-2.37a5.11,5.11,0,0,0,3.54,1.63c1.58,0,2.62-.68,2.62-1.9,0-1.43-.84-2.32-4.35-2.32v-2.64c2.9,0,3.82-.87,3.82-2.17,0-1.12-.72-1.78-2-1.78a4.52,4.52,0,0,0-3,1.43l-1.88-2.29a7.62,7.62,0,0,1,5.09-2.06c3.33,0,5.57,1.6,5.57,4.42a3.81,3.81,0,0,1-2.7,3.59v.1a4,4,0,0,1,3.21,3.94c0,3-2.75,4.71-6,4.71A7.06,7.06,0,0,1,294.64,241.66Z" style="fill:#1e1e1e"/><path d="M308.45,235.5c0-5.49,2.32-8.31,5.78-8.31S320,230,320,235.5s-2.31,8.45-5.77,8.45S308.45,241,308.45,235.5Zm8,0c0-4.42-1-5.41-2.24-5.41s-2.24,1-2.24,5.41,1,5.55,2.24,5.55S316.47,239.91,316.47,235.5Z" style="fill:#1e1e1e"/><path d="M322,235.89h6.26v2.64H322Z" style="fill:#1e1e1e"/><path d="M336.86,239.78h-7v-2.57l5.9-9.72h4.58v9.44h1.85v2.85h-1.85v3.86h-3.49Zm0-2.85v-2.62c0-1,.1-2.6.15-3.61h-.1c-.41.89-.86,1.8-1.32,2.72l-2.14,3.51Z" style="fill:#1e1e1e"/><path d="M343.9,242l2-2.24a3.58,3.58,0,0,0,2.49,1.14c1.81,0,3.21-1.27,3.33-5a4.57,4.57,0,0,1-3.23,1.7c-2.74,0-4.8-1.58-4.8-5a5.19,5.19,0,0,1,5.36-5.41c3.13,0,6.13,2.34,6.13,8,0,6-3.15,8.75-6.53,8.75A6.63,6.63,0,0,1,343.9,242Zm7.74-8.68c-.33-2.54-1.38-3.35-2.52-3.35s-2,.78-2,2.61S348,235,349.22,235A2.8,2.8,0,0,0,351.64,233.34Z" style="fill:#1e1e1e"/><path d="M362.5,237.49c0-4.15,2.69-6.51,5.72-6.51s5.72,2.36,5.72,6.51-2.69,6.46-5.72,6.46S362.5,241.58,362.5,237.49Zm9.28,0c0-2.85-1.42-4.78-3.56-4.78s-3.56,1.93-3.56,4.78,1.45,4.73,3.56,4.73S371.78,240.31,371.78,237.49Z" style="fill:#1e1e1e"/><path d="M375.62,231.28h2.13l1.83,7.15c.29,1.17.51,2.29.74,3.43h.1c.29-1.14.54-2.29.84-3.43l1.91-7.15h2l1.93,7.15c.31,1.17.58,2.29.86,3.43h.11c.28-1.14.51-2.26.76-3.43l1.81-7.15h2l-3.31,12.36h-2.54L385,237c-.31-1.17-.54-2.32-.84-3.57h-.1c-.28,1.25-.54,2.42-.87,3.59l-1.73,6.61h-2.44Z" style="fill:#1e1e1e"/><path d="M395.35,231.28h1.73l.18,1.78h.08a5.82,5.82,0,0,1,4.14-2.08c2.6,0,3.77,1.68,3.77,4.83v7.83h-2.09v-7.55c0-2.31-.71-3.31-2.34-3.31-1.27,0-2.14.66-3.38,1.91v8.95h-2.09Z" style="fill:#1e1e1e"/><path d="M413,242.25l1-1.4a5.58,5.58,0,0,0,3.64,1.47c1.62,0,2.44-.86,2.44-1.93,0-1.27-1.48-1.83-2.83-2.34-1.75-.64-3.68-1.48-3.68-3.56s1.57-3.51,4.24-3.51a6.11,6.11,0,0,1,3.84,1.4l-1,1.32a4.57,4.57,0,0,0-2.82-1.1c-1.55,0-2.26.84-2.26,1.79,0,1.17,1.34,1.6,2.74,2.13,1.78.66,3.77,1.4,3.77,3.74,0,2-1.61,3.69-4.53,3.69A7.48,7.48,0,0,1,413,242.25Z" style="fill:#1e1e1e"/><path d="M424.85,239.83V233H423v-1.58l1.94-.13.25-3.46H427v3.46h3.34V233H427v6.86c0,1.53.49,2.4,1.91,2.4a4.61,4.61,0,0,0,1.4-.33l.41,1.57a7.64,7.64,0,0,1-2.29.46C425.74,244,424.85,242.27,424.85,239.83Z" style="fill:#1e1e1e"/><path d="M431.82,237.49c0-4.15,2.7-6.51,5.72-6.51s5.73,2.36,5.73,6.51-2.7,6.46-5.73,6.46S431.82,241.58,431.82,237.49Zm9.28,0c0-2.85-1.42-4.78-3.56-4.78s-3.56,1.93-3.56,4.78,1.45,4.73,3.56,4.73S441.1,240.31,441.1,237.49Z" style="fill:#1e1e1e"/><path d="M445.6,237.49c0-4.15,2.78-6.51,6-6.51a5.14,5.14,0,0,1,3.61,1.45l-1.07,1.37a3.61,3.61,0,0,0-2.47-1.09c-2.24,0-3.86,1.93-3.86,4.78s1.55,4.73,3.81,4.73a4.36,4.36,0,0,0,2.9-1.25l.92,1.4a6.05,6.05,0,0,1-4,1.58C448.12,244,445.6,241.58,445.6,237.49Z" style="fill:#1e1e1e"/><path d="M458.12,225.53h2.06v12.26h.07l5.27-6.51h2.31l-4.14,5,4.7,7.4H466.1l-3.61-5.95-2.31,2.7v3.25h-2.06Z" style="fill:#1e1e1e"/><path d="M470.6,242.37a1.52,1.52,0,1,1,3,0,1.52,1.52,0,1,1-3,0Z" style="fill:#1e1e1e"/><path d="M57.67,313.26c0-10.29,5.38-16.94,12.9-16.94a8,8,0,0,1,6.49,3.57l-4,3.32a3.52,3.52,0,0,0-2.93-1.82c-2.65,0-5.07,2.14-6.1,6.85a7.32,7.32,0,0,1,4.59-2.18c3.49,0,6.26,1.94,6.26,6.57,0,4.87-3.72,9.74-9.11,9.74C60.84,322.37,57.67,318.69,57.67,313.26Zm11.48-.11c0-1.79-.79-2.81-2.22-2.81-1,0-2.06.55-3.36,2.17,0,.48,0,.95,0,1.43,0,2.49,1.11,3.76,2.61,3.76C68.28,317.7,69.15,315,69.15,313.15Z" style="fill:#ff5b42"/><path d="M76.43,318.33c7.44-6,13.06-10.21,13.06-14.41a2.41,2.41,0,0,0-2.61-2.61c-1.35,0-2.38.79-3.72,1.82l-3-3.64a11.82,11.82,0,0,1,7.52-3.17c4.91,0,8,2.77,8,7,0,4.91-4,8.47-9.19,13.3h7.6l-1,5.3H75.72Z" style="fill:#ff5b42"/><path d="M98.83,305.27c0-5.78,3.17-10,7.76-10,3.09,0,5.7,2.45,5.7,6.41,0,5.78-3.17,10.05-7.76,10.05C101.44,311.68,98.83,309.23,98.83,305.27Zm22.33-10h3.56l-18.61,27.08h-3.56Zm-13.3,6.42c0-1.75-.56-2.77-1.67-2.77-1.58,0-2.93,2.37-2.93,6.25,0,1.74.56,2.77,1.67,2.77C106.51,308,107.86,305.59,107.86,301.71Zm7.6,14.25c0-5.78,3.16-10.06,7.75-10.06,3.09,0,5.7,2.46,5.7,6.41,0,5.78-3.16,10.06-7.75,10.06C118.07,322.37,115.46,319.91,115.46,316Zm9-3.57c0-1.74-.55-2.77-1.66-2.77-1.59,0-2.93,2.38-2.93,6.26,0,1.74.55,2.77,1.66,2.77C123.13,318.65,124.48,316.27,124.48,312.39Z" style="fill:#ff5b42"/><path d="M136.51,315.74c0-4.15,2.7-6.51,5.73-6.51s5.72,2.36,5.72,6.51-2.7,6.46-5.72,6.46S136.51,319.83,136.51,315.74Zm9.29,0c0-2.85-1.42-4.78-3.56-4.78s-3.56,1.93-3.56,4.78,1.45,4.73,3.56,4.73S145.8,318.56,145.8,315.74Z" style="fill:#1e1e1e"/><path d="M151.57,311.24h-1.68v-1.58l1.68-.13v-2c0-2.52,1.14-4.09,3.61-4.09a5.76,5.76,0,0,1,2.06.4l-.46,1.61a3.34,3.34,0,0,0-1.39-.31c-1.18,0-1.73.82-1.73,2.39v2h2.62v1.71h-2.62v10.65h-2.09Z" style="fill:#1e1e1e"/><path d="M163.73,309.53h1.73l.17,1.43h.08a6.34,6.34,0,0,1,3.94-1.73c3.18,0,4.89,2.46,4.89,6.3,0,4.2-2.52,6.67-5.35,6.67a5.76,5.76,0,0,1-3.43-1.43l.05,2.17v4.17h-2.08Zm8.64,6c0-2.72-.91-4.55-3.25-4.55a5.24,5.24,0,0,0-3.31,1.68v6.49a4.88,4.88,0,0,0,3,1.29C170.87,320.44,172.37,318.59,172.37,315.53Z" style="fill:#1e1e1e"/><path d="M176.92,315.74c0-4.05,2.73-6.51,5.55-6.51,3.15,0,4.93,2.26,4.93,5.8a8.19,8.19,0,0,1-.07,1.19H179c.16,2.62,1.76,4.3,4.13,4.3a5.51,5.51,0,0,0,3.07-1l.74,1.38a7.42,7.42,0,0,1-4.07,1.27C179.54,322.2,176.92,319.78,176.92,315.74Zm8.65-1c0-2.49-1.12-3.84-3-3.84-1.73,0-3.31,1.4-3.56,3.84Z" style="fill:#1e1e1e"/><path d="M189.54,315.74c0-4.15,2.69-6.51,5.72-6.51s5.72,2.36,5.72,6.51-2.69,6.46-5.72,6.46S189.54,319.83,189.54,315.74Zm9.28,0c0-2.85-1.42-4.78-3.56-4.78s-3.56,1.93-3.56,4.78,1.45,4.73,3.56,4.73S198.82,318.56,198.82,315.74Z" style="fill:#1e1e1e"/><path d="M204.24,309.53H206l.17,1.43h.08a6.34,6.34,0,0,1,3.94-1.73c3.18,0,4.89,2.46,4.89,6.3,0,4.2-2.52,6.67-5.34,6.67a5.76,5.76,0,0,1-3.44-1.43l0,2.17v4.17h-2.08Zm8.65,6c0-2.72-.92-4.55-3.26-4.55a5.24,5.24,0,0,0-3.31,1.68v6.49a4.9,4.9,0,0,0,3,1.29C211.38,320.44,212.89,318.59,212.89,315.53Z" style="fill:#1e1e1e"/><path d="M218.35,319.4V303.78h2.09v15.77c0,.66.28.92.58.92a1.79,1.79,0,0,0,.46-.05l.28,1.57a2.77,2.77,0,0,1-1.2.21C219,322.2,218.35,321.21,218.35,319.4Z" style="fill:#1e1e1e"/><path d="M223.92,315.74c0-4.05,2.72-6.51,5.55-6.51,3.15,0,4.93,2.26,4.93,5.8a6.88,6.88,0,0,1-.08,1.19H226c.15,2.62,1.76,4.3,4.12,4.3a5.57,5.57,0,0,0,3.08-1l.74,1.38a7.42,7.42,0,0,1-4.07,1.27C226.54,322.2,223.92,319.78,223.92,315.74Zm8.65-1c0-2.49-1.12-3.84-3-3.84-1.73,0-3.31,1.4-3.56,3.84Z" style="fill:#1e1e1e"/><path d="M241.77,318.69c0-2.7,2.32-4.05,7.58-4.63,0-1.58-.51-3.1-2.54-3.1a6.73,6.73,0,0,0-3.69,1.32l-.81-1.45a9.13,9.13,0,0,1,4.86-1.6c3,0,4.29,2,4.29,5.08v7.58h-1.73l-.17-1.47h-.08a6.62,6.62,0,0,1-4.1,1.78A3.36,3.36,0,0,1,241.77,318.69Zm7.58.18v-3.44c-4.12.51-5.54,1.53-5.54,3.11,0,1.39,1,2,2.19,2A5,5,0,0,0,249.35,318.87Z" style="fill:#1e1e1e"/><path d="M254.41,324.26a3.58,3.58,0,0,1,1.81-2.8v-.1a2.28,2.28,0,0,1-1.1-2,2.91,2.91,0,0,1,1.35-2.29V317a4.36,4.36,0,0,1,3.06-7.73,4.91,4.91,0,0,1,1.75.3h4.3v1.6H263a3.61,3.61,0,0,1,1,2.55,4.24,4.24,0,0,1-4.52,4.3,4.31,4.31,0,0,1-1.86-.44,1.88,1.88,0,0,0-.79,1.48c0,.79.51,1.35,2.19,1.35h2.39c2.87,0,4.32.89,4.32,2.95,0,2.29-2.41,4.27-6.25,4.27C256.5,327.59,254.41,326.4,254.41,324.26Zm9.34-.64c0-1.14-.89-1.52-2.5-1.52h-2.13a5.68,5.68,0,0,1-1.6-.21,2.61,2.61,0,0,0-1.28,2.09c0,1.32,1.35,2.16,3.59,2.16S263.75,324.92,263.75,323.62Zm-1.61-10a2.63,2.63,0,1,0-5.23,0,2.63,2.63,0,1,0,5.23,0Z" style="fill:#1e1e1e"/><path d="M266.9,315.74c0-4.05,2.72-6.51,5.54-6.51,3.16,0,4.94,2.26,4.94,5.8a8.05,8.05,0,0,1-.08,1.19H269c.15,2.62,1.75,4.3,4.12,4.3a5.57,5.57,0,0,0,3.08-1l.74,1.38a7.44,7.44,0,0,1-4.07,1.27C269.52,322.2,266.9,319.78,266.9,315.74Zm8.65-1c0-2.49-1.12-3.84-3.05-3.84-1.73,0-3.31,1.4-3.57,3.84Z" style="fill:#1e1e1e"/><path d="M279.05,320.49l1.05-1.39a5.58,5.58,0,0,0,3.64,1.47c1.62,0,2.44-.86,2.44-1.93,0-1.27-1.48-1.83-2.83-2.34-1.75-.64-3.68-1.48-3.68-3.56s1.57-3.51,4.24-3.51a6.18,6.18,0,0,1,3.84,1.39l-1,1.33a4.57,4.57,0,0,0-2.82-1.1c-1.55,0-2.27.84-2.27,1.78,0,1.17,1.35,1.61,2.75,2.14,1.78.66,3.77,1.4,3.77,3.74,0,2-1.61,3.69-4.53,3.69A7.43,7.43,0,0,1,279.05,320.49Z" style="fill:#1e1e1e"/><path d="M294.67,319.93l1.68-2.36a5.19,5.19,0,0,0,3.48,1.6c1.66,0,2.73-.86,2.73-2.52a2.33,2.33,0,0,0-2.55-2.49,3.83,3.83,0,0,0-2.39.81l-1.68-1.06.46-8.17h9.16v3.16h-5.93l-.28,3a4.06,4.06,0,0,1,1.81-.38c2.77,0,5.13,1.58,5.13,5,0,3.59-2.77,5.65-5.92,5.65A7.63,7.63,0,0,1,294.67,319.93Z" style="fill:#1e1e1e"/><path d="M308.45,313.75c0-5.49,2.32-8.31,5.78-8.31s5.77,2.82,5.77,8.31-2.31,8.45-5.77,8.45S308.45,319.25,308.45,313.75Zm8,0c0-4.42-1-5.41-2.24-5.41s-2.24,1-2.24,5.41,1,5.55,2.24,5.55S316.47,318.15,316.47,313.75Z" style="fill:#1e1e1e"/><path d="M322,314.13h6.26v2.65H322Z" style="fill:#1e1e1e"/><path d="M330.43,314.19c0-6,3.12-8.75,6.53-8.75a6.44,6.44,0,0,1,4.71,1.93l-2,2.24a3.72,3.72,0,0,0-2.52-1.15c-1.78,0-3.2,1.27-3.33,5a4.55,4.55,0,0,1,3.23-1.71c2.77,0,4.81,1.58,4.81,5a5.19,5.19,0,0,1-5.37,5.42C333.4,322.2,330.43,319.86,330.43,314.19Zm8.06,2.59c0-1.7-.89-2.34-2.11-2.34a2.86,2.86,0,0,0-2.44,1.6c.33,2.55,1.39,3.36,2.51,3.36S338.49,318.61,338.49,316.78Z" style="fill:#1e1e1e"/><path d="M343.4,319.93l1.67-2.36a5.22,5.22,0,0,0,3.49,1.6,2.4,2.4,0,0,0,2.72-2.52,2.32,2.32,0,0,0-2.54-2.49,3.81,3.81,0,0,0-2.39.81l-1.68-1.06.45-8.17h9.16v3.16h-5.92l-.28,3a4,4,0,0,1,1.8-.38c2.77,0,5.14,1.58,5.14,5,0,3.59-2.77,5.65-5.93,5.65A7.63,7.63,0,0,1,343.4,319.93Z" style="fill:#1e1e1e"/><path d="M362.5,315.74c0-4.15,2.69-6.51,5.72-6.51s5.72,2.36,5.72,6.51-2.69,6.46-5.72,6.46S362.5,319.83,362.5,315.74Zm9.28,0c0-2.85-1.42-4.78-3.56-4.78s-3.56,1.93-3.56,4.78,1.45,4.73,3.56,4.73S371.78,318.56,371.78,315.74Z" style="fill:#1e1e1e"/><path d="M375.62,309.53h2.13l1.83,7.15c.29,1.17.51,2.29.74,3.43h.1c.29-1.14.54-2.29.84-3.43l1.91-7.15h2l1.93,7.15c.31,1.17.58,2.29.86,3.43h.11c.28-1.14.51-2.26.76-3.43l1.81-7.15h2l-3.31,12.36h-2.54L385,315.25c-.31-1.17-.54-2.31-.84-3.56h-.1c-.28,1.25-.54,2.42-.87,3.59l-1.73,6.61h-2.44Z" style="fill:#1e1e1e"/><path d="M395.35,309.53h1.73l.18,1.78h.08a5.82,5.82,0,0,1,4.14-2.08c2.6,0,3.77,1.67,3.77,4.83v7.83h-2.09v-7.55c0-2.32-.71-3.31-2.34-3.31-1.27,0-2.14.66-3.38,1.91v8.95h-2.09Z" style="fill:#1e1e1e"/><path d="M413,320.49l1-1.39a5.58,5.58,0,0,0,3.64,1.47c1.62,0,2.44-.86,2.44-1.93,0-1.27-1.48-1.83-2.83-2.34-1.75-.64-3.68-1.48-3.68-3.56s1.57-3.51,4.24-3.51a6.16,6.16,0,0,1,3.84,1.39l-1,1.33a4.57,4.57,0,0,0-2.82-1.1c-1.55,0-2.26.84-2.26,1.78,0,1.17,1.34,1.61,2.74,2.14,1.78.66,3.77,1.4,3.77,3.74,0,2-1.61,3.69-4.53,3.69A7.43,7.43,0,0,1,413,320.49Z" style="fill:#1e1e1e"/><path d="M424.85,318.08v-6.84H423v-1.58l1.94-.13.25-3.46H427v3.46h3.34v1.71H427v6.86c0,1.53.49,2.39,1.91,2.39a4.33,4.33,0,0,0,1.4-.33l.41,1.58a7.64,7.64,0,0,1-2.29.46C425.74,322.2,424.85,320.52,424.85,318.08Z" style="fill:#1e1e1e"/><path d="M431.82,315.74c0-4.15,2.7-6.51,5.72-6.51s5.73,2.36,5.73,6.51-2.7,6.46-5.73,6.46S431.82,319.83,431.82,315.74Zm9.28,0c0-2.85-1.42-4.78-3.56-4.78s-3.56,1.93-3.56,4.78,1.45,4.73,3.56,4.73S441.1,318.56,441.1,315.74Z" style="fill:#1e1e1e"/><path d="M445.6,315.74c0-4.15,2.78-6.51,6-6.51a5.14,5.14,0,0,1,3.61,1.45l-1.07,1.37a3.61,3.61,0,0,0-2.47-1.09c-2.24,0-3.86,1.93-3.86,4.78s1.55,4.73,3.81,4.73a4.36,4.36,0,0,0,2.9-1.25l.92,1.4a6.05,6.05,0,0,1-4,1.58C448.12,322.2,445.6,319.83,445.6,315.74Z" style="fill:#1e1e1e"/><path d="M458.12,303.78h2.06V316h.07l5.27-6.51h2.31l-4.14,5,4.7,7.4H466.1l-3.61-5.95-2.31,2.7v3.25h-2.06Z" style="fill:#1e1e1e"/><path d="M470.6,320.62a1.52,1.52,0,1,1,3,0,1.52,1.52,0,1,1-3,0Z" style="fill:#1e1e1e"/><path d="M55.37,396l4-3.25A5.87,5.87,0,0,0,64,395.55a3.76,3.76,0,0,0,3.88-4,2.72,2.72,0,0,0-3-3,6,6,0,0,0-3.48,1.11l-2.3-1.9,3.09-12.74H76.35l-1,5.3h-8.7l-1.11,4a4.69,4.69,0,0,1,2-.4c3.8,0,6.73,2.3,6.73,6.65,0,6.26-5.14,10.06-10.37,10.06A10.2,10.2,0,0,1,55.37,396Z" style="fill:#ff5b42"/><path d="M77.93,395.08H83l2.77-13.7H81.18l.79-4a17.33,17.33,0,0,0,6.73-2.37h4.67l-4,20h4.44l-1,5.06H76.9Z" style="fill:#ff5b42"/><path d="M98.83,383.52c0-5.78,3.17-10.06,7.76-10.06,3.09,0,5.7,2.46,5.7,6.42,0,5.77-3.17,10.05-7.76,10.05C101.44,389.93,98.83,387.48,98.83,383.52Zm22.33-10h3.56l-18.61,27.08h-3.56ZM107.86,380c0-1.75-.56-2.78-1.67-2.78-1.58,0-2.93,2.38-2.93,6.26,0,1.74.56,2.77,1.67,2.77C106.51,386.21,107.86,383.83,107.86,380Zm7.6,14.24c0-5.77,3.16-10.05,7.75-10.05,3.09,0,5.7,2.45,5.7,6.41,0,5.78-3.16,10.06-7.75,10.06C118.07,400.62,115.46,398.16,115.46,394.2Zm9-3.56c0-1.74-.55-2.77-1.66-2.77-1.59,0-2.93,2.38-2.93,6.26,0,1.74.55,2.77,1.66,2.77C123.13,396.9,124.48,394.52,124.48,390.64Z" style="fill:#ff5b42"/><path d="M136.51,394c0-4.15,2.7-6.52,5.73-6.52S148,389.84,148,394s-2.7,6.46-5.72,6.46S136.51,398.08,136.51,394Zm9.29,0c0-2.85-1.42-4.79-3.56-4.79s-3.56,1.94-3.56,4.79,1.45,4.73,3.56,4.73S145.8,396.81,145.8,394Z" style="fill:#1e1e1e"/><path d="M151.57,389.48h-1.68v-1.57l1.68-.13v-2c0-2.52,1.14-4.09,3.61-4.09a5.55,5.55,0,0,1,2.06.4l-.46,1.61a3.34,3.34,0,0,0-1.39-.31c-1.18,0-1.73.81-1.73,2.39v2h2.62v1.7h-2.62v10.66h-2.09Z" style="fill:#1e1e1e"/><path d="M163.73,387.78h1.73l.17,1.42h.08a6.4,6.4,0,0,1,3.94-1.73c3.18,0,4.89,2.47,4.89,6.31,0,4.2-2.52,6.67-5.35,6.67a5.76,5.76,0,0,1-3.43-1.43l.05,2.16v4.18h-2.08Zm8.64,6c0-2.72-.91-4.55-3.25-4.55a5.19,5.19,0,0,0-3.31,1.68v6.48a4.84,4.84,0,0,0,3,1.3C170.87,398.69,172.37,396.83,172.37,393.78Z" style="fill:#1e1e1e"/><path d="M176.92,394c0-4.05,2.73-6.52,5.55-6.52,3.15,0,4.93,2.27,4.93,5.8a8.34,8.34,0,0,1-.07,1.2H179c.16,2.62,1.76,4.3,4.13,4.3a5.51,5.51,0,0,0,3.07-1l.74,1.37a7.34,7.34,0,0,1-4.07,1.28C179.54,400.45,176.92,398,176.92,394Zm8.65-1c0-2.49-1.12-3.84-3-3.84-1.73,0-3.31,1.4-3.56,3.84Z" style="fill:#1e1e1e"/><path d="M189.54,394c0-4.15,2.69-6.52,5.72-6.52S201,389.84,201,394s-2.69,6.46-5.72,6.46S189.54,398.08,189.54,394Zm9.28,0c0-2.85-1.42-4.79-3.56-4.79s-3.56,1.94-3.56,4.79,1.45,4.73,3.56,4.73S198.82,396.81,198.82,394Z" style="fill:#1e1e1e"/><path d="M204.24,387.78H206l.17,1.42h.08a6.4,6.4,0,0,1,3.94-1.73c3.18,0,4.89,2.47,4.89,6.31,0,4.2-2.52,6.67-5.34,6.67a5.76,5.76,0,0,1-3.44-1.43l0,2.16v4.18h-2.08Zm8.65,6c0-2.72-.92-4.55-3.26-4.55a5.19,5.19,0,0,0-3.31,1.68v6.48a4.86,4.86,0,0,0,3,1.3C211.38,398.69,212.89,396.83,212.89,393.78Z" style="fill:#1e1e1e"/><path d="M218.35,397.65V382h2.09V397.8c0,.66.28.92.58.92a1.79,1.79,0,0,0,.46-.05l.28,1.57a2.77,2.77,0,0,1-1.2.21C219,400.45,218.35,399.45,218.35,397.65Z" style="fill:#1e1e1e"/><path d="M223.92,394c0-4.05,2.72-6.52,5.55-6.52,3.15,0,4.93,2.27,4.93,5.8a7,7,0,0,1-.08,1.2H226c.15,2.62,1.76,4.3,4.12,4.3a5.57,5.57,0,0,0,3.08-1l.74,1.37a7.34,7.34,0,0,1-4.07,1.28C226.54,400.45,223.92,398,223.92,394Zm8.65-1c0-2.49-1.12-3.84-3-3.84-1.73,0-3.31,1.4-3.56,3.84Z" style="fill:#1e1e1e"/><path d="M241.77,396.94c0-2.7,2.32-4.05,7.58-4.63,0-1.58-.51-3.11-2.54-3.11a6.74,6.74,0,0,0-3.69,1.33l-.81-1.45a9.13,9.13,0,0,1,4.86-1.61c3,0,4.29,2,4.29,5.09v7.58h-1.73l-.17-1.47h-.08a6.62,6.62,0,0,1-4.1,1.78A3.36,3.36,0,0,1,241.77,396.94Zm7.58.17v-3.43c-4.12.51-5.54,1.53-5.54,3.1,0,1.4,1,2,2.19,2A5,5,0,0,0,249.35,397.11Z" style="fill:#1e1e1e"/><path d="M254.41,402.51a3.56,3.56,0,0,1,1.81-2.8v-.1a2.29,2.29,0,0,1-1.1-2,2.91,2.91,0,0,1,1.35-2.29v-.1a4.37,4.37,0,0,1,3.06-7.74,4.89,4.89,0,0,1,1.75.31h4.3v1.6H263a3.61,3.61,0,0,1,1,2.55,4.24,4.24,0,0,1-4.52,4.29,4.3,4.3,0,0,1-1.86-.43,1.88,1.88,0,0,0-.79,1.48c0,.79.51,1.35,2.19,1.35h2.39c2.87,0,4.32.89,4.32,2.95,0,2.29-2.41,4.27-6.25,4.27C256.5,405.84,254.41,404.64,254.41,402.51Zm9.34-.64c0-1.14-.89-1.52-2.5-1.52h-2.13a6.07,6.07,0,0,1-1.6-.21,2.61,2.61,0,0,0-1.28,2.09c0,1.32,1.35,2.16,3.59,2.16S263.75,403.17,263.75,401.87Zm-1.61-10a2.63,2.63,0,1,0-5.23,0,2.63,2.63,0,1,0,5.23,0Z" style="fill:#1e1e1e"/><path d="M266.9,394c0-4.05,2.72-6.52,5.54-6.52,3.16,0,4.94,2.27,4.94,5.8a8.2,8.2,0,0,1-.08,1.2H269c.15,2.62,1.75,4.3,4.12,4.3a5.57,5.57,0,0,0,3.08-1l.74,1.37a7.37,7.37,0,0,1-4.07,1.28C269.52,400.45,266.9,398,266.9,394Zm8.65-1c0-2.49-1.12-3.84-3.05-3.84-1.73,0-3.31,1.4-3.57,3.84Z" style="fill:#1e1e1e"/><path d="M279.05,398.74l1.05-1.4a5.54,5.54,0,0,0,3.64,1.48c1.62,0,2.44-.87,2.44-1.93,0-1.28-1.48-1.84-2.83-2.34-1.75-.64-3.68-1.48-3.68-3.57s1.57-3.51,4.24-3.51a6.19,6.19,0,0,1,3.84,1.4l-1,1.33a4.57,4.57,0,0,0-2.82-1.1c-1.55,0-2.27.84-2.27,1.78,0,1.17,1.35,1.61,2.75,2.14,1.78.66,3.77,1.4,3.77,3.74,0,2-1.61,3.69-4.53,3.69A7.43,7.43,0,0,1,279.05,398.74Z" style="fill:#1e1e1e"/><path d="M295.13,392.43c0-6,3.13-8.75,6.54-8.75a6.39,6.39,0,0,1,4.7,1.94l-2,2.24a3.72,3.72,0,0,0-2.52-1.15c-1.78,0-3.2,1.27-3.33,5a4.55,4.55,0,0,1,3.23-1.71c2.77,0,4.81,1.58,4.81,5a5.19,5.19,0,0,1-5.37,5.42C298.1,400.45,295.13,398.11,295.13,392.43Zm8.06,2.6c0-1.71-.89-2.34-2.11-2.34a2.86,2.86,0,0,0-2.44,1.6c.33,2.54,1.4,3.36,2.52,3.36S303.19,396.86,303.19,395Z" style="fill:#1e1e1e"/><path d="M308.1,398.18l1.68-2.36a5.17,5.17,0,0,0,3.48,1.6c1.66,0,2.72-.86,2.72-2.52a2.32,2.32,0,0,0-2.54-2.49,3.81,3.81,0,0,0-2.39.81l-1.68-1.07.46-8.16H319v3.15h-5.92l-.28,3a4,4,0,0,1,1.8-.38c2.78,0,5.14,1.58,5.14,5,0,3.59-2.77,5.65-5.92,5.65A7.67,7.67,0,0,1,308.1,398.18Z" style="fill:#1e1e1e"/><path d="M326.28,393.07h-4.47v-2.65h4.47v-4.68H329v4.68h4.48v2.65H329v4.68h-2.75Z" style="fill:#1e1e1e"/><path d="M340.62,394c0-4.15,2.7-6.52,5.73-6.52s5.72,2.37,5.72,6.52-2.7,6.46-5.72,6.46S340.62,398.08,340.62,394Zm9.29,0c0-2.85-1.43-4.79-3.56-4.79s-3.56,1.94-3.56,4.79,1.45,4.73,3.56,4.73S349.91,396.81,349.91,394Z" style="fill:#1e1e1e"/><path d="M353.75,387.78h2.13l1.83,7.15c.29,1.17.51,2.29.74,3.43h.1c.28-1.14.54-2.29.84-3.43l1.91-7.15h2l1.93,7.15c.31,1.17.58,2.29.86,3.43h.11c.28-1.14.51-2.26.76-3.43l1.81-7.15h2l-3.31,12.36h-2.54l-1.78-6.64c-.31-1.17-.54-2.31-.84-3.56h-.1c-.28,1.25-.54,2.42-.87,3.59l-1.73,6.61h-2.44Z" style="fill:#1e1e1e"/><path d="M373.48,387.78h1.73l.18,1.78h.07a5.87,5.87,0,0,1,4.15-2.09c2.6,0,3.77,1.68,3.77,4.84v7.83h-2.09v-7.55c0-2.32-.71-3.31-2.34-3.31-1.27,0-2.14.66-3.38,1.91v8.95h-2.09Z" style="fill:#1e1e1e"/><path d="M391.1,398.74l1-1.4a5.54,5.54,0,0,0,3.64,1.48c1.62,0,2.44-.87,2.44-1.93,0-1.28-1.48-1.84-2.83-2.34-1.75-.64-3.69-1.48-3.69-3.57s1.58-3.51,4.25-3.51a6.19,6.19,0,0,1,3.84,1.4l-1,1.33a4.57,4.57,0,0,0-2.82-1.1c-1.55,0-2.27.84-2.27,1.78,0,1.17,1.35,1.61,2.75,2.14,1.78.66,3.77,1.4,3.77,3.74,0,2-1.61,3.69-4.53,3.69A7.43,7.43,0,0,1,391.1,398.74Z" style="fill:#1e1e1e"/><path d="M403,396.33v-6.85h-1.83v-1.57l1.93-.13.26-3.46h1.75v3.46h3.34v1.7h-3.34v6.87c0,1.53.49,2.39,1.91,2.39a4.61,4.61,0,0,0,1.4-.33l.41,1.58a7.64,7.64,0,0,1-2.29.46C403.87,400.45,403,398.77,403,396.33Z" style="fill:#1e1e1e"/><path d="M410,394c0-4.15,2.7-6.52,5.72-6.52s5.73,2.37,5.73,6.52-2.7,6.46-5.73,6.46S410,398.08,410,394Zm9.28,0c0-2.85-1.42-4.79-3.56-4.79s-3.56,1.94-3.56,4.79,1.45,4.73,3.56,4.73S419.23,396.81,419.23,394Z" style="fill:#1e1e1e"/><path d="M423.73,394c0-4.15,2.78-6.52,6-6.52a5.19,5.19,0,0,1,3.61,1.45l-1.07,1.38a3.62,3.62,0,0,0-2.47-1.1c-2.24,0-3.86,1.94-3.86,4.79s1.55,4.73,3.81,4.73a4.36,4.36,0,0,0,2.9-1.25l.92,1.4a6.05,6.05,0,0,1-4,1.58C426.25,400.45,423.73,398.08,423.73,394Z" style="fill:#1e1e1e"/><path d="M436.25,382h2.06v12.26h.07l5.27-6.51H446l-4.14,5,4.7,7.4h-2.29l-3.61-5.95-2.31,2.7v3.25h-2.06Z" style="fill:#1e1e1e"/><path d="M448.73,398.87a1.52,1.52,0,1,1,3,0,1.52,1.52,0,1,1-3,0Z" style="fill:#1e1e1e"/></g></svg>