<svg xmlns="http://www.w3.org/2000/svg" viewBox="0 0 550 500"><title>age-shapes</title><g id="mockup"><rect x="5.7" y="5.36" width="538.6" height="489.29" style="fill:none;stroke:#ffb9a6;stroke-miterlimit:10;stroke-width:3px"/><path d="M236,223.39h9.24l14.48,44.45h-8.29l-3.47-12H233l-3.47,12h-8Zm-1.16,26.24h11.35l-1.56-5.44c-1.43-4.69-2.72-9.79-4-14.68h-.27c-1.22,5-2.51,10-3.94,14.68Z" style="fill:#fff3ee"/><path d="M262.26,273.89c0-2.79,1.7-5.23,4.75-7.14v-.27a6.26,6.26,0,0,1-3-5.57c0-2.58,1.77-4.83,3.67-6.18v-.28a11.27,11.27,0,0,1-4.35-8.83c0-7.68,6.19-12,13.19-12a15.2,15.2,0,0,1,4.89.81h12v5.78h-6.11a9,9,0,0,1,1.9,5.64c0,7.41-5.57,11.35-12.64,11.35a12.37,12.37,0,0,1-4.56-.88,3.85,3.85,0,0,0-1.63,3.19c0,1.9,1.36,3.06,5.44,3.06h5.91c8,0,12.24,2.45,12.24,8.22,0,6.6-6.94,11.76-17.81,11.76C268.17,282.59,262.26,279.74,262.26,273.89Zm24.12-1.77c0-2.58-2.1-3.33-5.91-3.33h-4.55a17.7,17.7,0,0,1-4.56-.47,5.62,5.62,0,0,0-2.58,4.42c0,3,3.26,4.75,8.56,4.75S286.38,275,286.38,272.12Zm-4.08-26.5c0-4.15-2.51-6.59-5.77-6.59s-5.85,2.37-5.85,6.59,2.59,6.73,5.85,6.73S282.3,249.9,282.3,245.62Z" style="fill:#fff3ee"/><path d="M296.58,251.19c0-10.87,7.54-17.53,15.36-17.53,9,0,13.8,6.52,13.8,15.83a18.52,18.52,0,0,1-.34,3.81H304.19c.68,5.91,4.49,9.31,9.86,9.31a13.86,13.86,0,0,0,7.74-2.45l2.66,4.9a21.14,21.14,0,0,1-11.42,3.6C303.78,268.66,296.58,262.2,296.58,251.19ZM318.94,248c0-5.17-2.24-8.29-6.8-8.29-3.94,0-7.34,2.92-8,8.29Z" style="fill:#fff3ee"/></g></svg>