<svg xmlns="http://www.w3.org/2000/svg" viewBox="0 0 100 40"><title>top-apesh-earn-shapes</title><g id="mockup"><path d="M1,20.31C1,13.7,5.43,8.49,10.23,8.49a4.07,4.07,0,0,1,3.62,2.16h.07l.76-1.74h4.45L15.66,26.29H11.14V24.13h-.07a7.79,7.79,0,0,1-5.22,2.58C2.79,26.71,1,24.41,1,20.31Zm10.43-.42,1.12-5.56A2.19,2.19,0,0,0,10.65,13c-2,0-3.89,2.71-3.89,6.6,0,1.81.62,2.58,1.59,2.58S10.51,21.77,11.41,19.89Z" style="fill:#ff5b42"/><path d="M23.13,28.1l-.83,4.31H16.73l4.73-23.5H26l.14,1.87h.07a8,8,0,0,1,5.07-2.29c3.06,0,4.87,2.29,4.87,6.4,0,6.6-4.45,11.82-9.25,11.82a3.78,3.78,0,0,1-3.26-1.88h-.07ZM25.84,15l-1.18,5.91a2,2,0,0,0,1.81,1.32c2,0,3.89-2.71,3.89-6.61,0-1.81-.62-2.57-1.6-2.57A3.31,3.31,0,0,0,25.84,15Z" style="fill:#ff5b42"/><path d="M46.18,8.49c4.24,0,5.77,3,5.77,6.61a10.89,10.89,0,0,1-1,4.17H41.59c.07,2.29,1.6,3.26,3.62,3.26a5.58,5.58,0,0,0,2.92-1.11l1.94,3.48a11.37,11.37,0,0,1-6.46,1.81c-4.24,0-7.23-2.85-7.23-7.51C36.38,12.8,41.52,8.49,46.18,8.49Zm1.11,7.44a4.85,4.85,0,0,0,.14-1.11c0-1.18-.49-2.09-2-2.09s-2.71,1-3.47,3.2Z" style="fill:#ff5b42"/><path d="M61.93,8.49c4.24,0,5.77,3,5.77,6.61a10.89,10.89,0,0,1-1,4.17H57.34c.07,2.29,1.6,3.26,3.61,3.26a5.52,5.52,0,0,0,2.92-1.11l1.95,3.48a11.37,11.37,0,0,1-6.46,1.81c-4.25,0-7.24-2.85-7.24-7.51C52.12,12.8,57.27,8.49,61.93,8.49ZM63,15.93a4.85,4.85,0,0,0,.14-1.11c0-1.18-.49-2.09-2-2.09s-2.71,1-3.47,3.2Z" style="fill:#ff5b42"/><path d="M66.62,23.3l3.2-2.64a4.72,4.72,0,0,0,3.48,2c1,0,1.94-.48,1.94-1.18,0-.9-1.11-1.25-2.92-2.29S69,16.62,69,14.33c0-3.34,3.12-5.84,7-5.84a8.12,8.12,0,0,1,5.91,2.78l-3,2.85A4.37,4.37,0,0,0,76,12.59c-1.11,0-1.81.56-1.81,1.25,0,1,1.46,1.39,2.78,2.16,1.67.9,3.48,2.29,3.48,4.87,0,3.47-3.13,5.84-7.51,5.84A8.05,8.05,0,0,1,66.62,23.3Z" style="fill:#ff5b42"/><path d="M85.43,2.09H91L89.81,7.73l-.84,3h.14A8,8,0,0,1,94.4,8.49c2.85,0,4.1,1.53,4.1,4.52a10.53,10.53,0,0,1-.28,2.5L96.07,26.29H90.5l2-10.08a8,8,0,0,0,.28-1.53,1.32,1.32,0,0,0-1.46-1.46c-1,0-1.81.62-3.06,1.94L86.12,26.29H80.56Z" style="fill:#ff5b42"/><path d="M27.72,34.11a1.73,1.73,0,0,1,1.61-1.89c.92,0,1.44.66,1.44,1.69a1.72,1.72,0,0,1,0,.34H28.32a1.19,1.19,0,0,0,1.2,1.25,1.62,1.62,0,0,0,.89-.28l.21.4a2.12,2.12,0,0,1-1.18.37A1.72,1.72,0,0,1,27.72,34.11Zm2.51-.29c0-.73-.32-1.12-.88-1.12a1.11,1.11,0,0,0-1,1.12Z" style="fill:#1e1e1e"/><path d="M31.33,35c0-.78.67-1.18,2.2-1.35,0-.45-.15-.9-.74-.9a2,2,0,0,0-1.07.39l-.24-.42a2.65,2.65,0,0,1,1.41-.47c.88,0,1.25.58,1.25,1.48v2.2h-.5l0-.43h0a1.93,1.93,0,0,1-1.19.52A1,1,0,0,1,31.33,35Zm2.2.05V34c-1.2.15-1.61.45-1.61.91a.55.55,0,0,0,.63.57A1.47,1.47,0,0,0,33.53,35Z" style="fill:#1e1e1e"/><path d="M35.28,32.31h.5l0,.65h0a1.25,1.25,0,0,1,1-.74.94.94,0,0,1,.39.07l-.12.54a1,1,0,0,0-.35-.06c-.3,0-.66.22-.91.83v2.3h-.6Z" style="fill:#1e1e1e"/><path d="M37.84,32.31h.5l.06.52h0a1.7,1.7,0,0,1,1.2-.61c.76,0,1.1.49,1.1,1.4V35.9h-.61V33.71c0-.68-.21-1-.68-1a1.37,1.37,0,0,0-1,.55v2.6h-.61Z" style="fill:#1e1e1e"/><path d="M43,35.5l.31-.41a1.63,1.63,0,0,0,1.06.43c.47,0,.71-.25.71-.56s-.43-.54-.83-.68-1.07-.43-1.07-1,.46-1,1.24-1a1.73,1.73,0,0,1,1.11.41l-.28.38a1.4,1.4,0,0,0-.83-.32c-.45,0-.65.25-.65.52s.39.47.8.62,1.09.41,1.09,1.09S45.15,36,44.3,36A2.19,2.19,0,0,1,43,35.5Z" style="fill:#1e1e1e"/><path d="M46.42,34.79v-2h-.53v-.45l.56,0,.07-1H47v1h1v.49H47v2c0,.44.14.7.56.7a1.47,1.47,0,0,0,.4-.1l.12.46a2.42,2.42,0,0,1-.66.13C46.68,36,46.42,35.5,46.42,34.79Z" style="fill:#1e1e1e"/><path d="M48.44,34.11A1.68,1.68,0,1,1,50.11,36,1.72,1.72,0,0,1,48.44,34.11Zm2.7,0c0-.83-.41-1.39-1-1.39s-1,.56-1,1.39.42,1.38,1,1.38S51.14,34.93,51.14,34.11Z" style="fill:#1e1e1e"/><path d="M52.45,34.11a1.74,1.74,0,0,1,1.73-1.89,1.49,1.49,0,0,1,1,.42l-.31.4a1.09,1.09,0,0,0-.72-.32c-.65,0-1.12.56-1.12,1.39s.45,1.38,1.11,1.38a1.27,1.27,0,0,0,.84-.36l.27.4a1.75,1.75,0,0,1-1.16.46A1.69,1.69,0,0,1,52.45,34.11Z" style="fill:#1e1e1e"/><path d="M56.09,30.64h.6V34.2h0l1.53-1.89h.67l-1.2,1.44,1.37,2.15h-.67l-1-1.73-.67.79v.94h-.6Z" style="fill:#1e1e1e"/><path d="M61,35c0-.78.67-1.18,2.2-1.35,0-.45-.15-.9-.74-.9a2,2,0,0,0-1.07.39l-.24-.42a2.62,2.62,0,0,1,1.41-.47c.88,0,1.25.58,1.25,1.48v2.2h-.5l0-.43h0a1.93,1.93,0,0,1-1.19.52A1,1,0,0,1,61,35Zm2.2.05V34c-1.2.15-1.61.45-1.61.91a.55.55,0,0,0,.63.57A1.47,1.47,0,0,0,63.21,35Z" style="fill:#1e1e1e"/><path d="M64.56,35.5l.3-.41a1.63,1.63,0,0,0,1.06.43c.47,0,.71-.25.71-.56s-.43-.54-.83-.68-1.07-.43-1.07-1,.46-1,1.24-1a1.73,1.73,0,0,1,1.11.41L66.8,33a1.4,1.4,0,0,0-.83-.32c-.45,0-.65.25-.65.52s.39.47.8.62,1.09.41,1.09,1.09S66.74,36,65.89,36A2.14,2.14,0,0,1,64.56,35.5Z" style="fill:#1e1e1e"/><path d="M69.17,37.37l.12-.48a.76.76,0,0,0,.27,0c.41,0,.67-.32.81-.76l.09-.27L69,32.31h.63l.73,2c.11.31.24.68.35,1h0c.1-.32.21-.69.3-1l.65-2h.59L70.94,36.2c-.26.71-.63,1.25-1.35,1.25A1.08,1.08,0,0,1,69.17,37.37Z" style="fill:#1e1e1e"/><path d="M72.69,34.11A1.68,1.68,0,1,1,74.35,36,1.71,1.71,0,0,1,72.69,34.11Zm2.7,0c0-.83-.42-1.39-1-1.39s-1,.56-1,1.39.42,1.38,1,1.38S75.39,34.93,75.39,34.11Z" style="fill:#1e1e1e"/><path d="M76.91,34.59V32.31h.61V34.5c0,.68.2,1,.68,1s.63-.19,1-.61V32.31h.6V35.9h-.5l0-.56h0A1.51,1.51,0,0,1,78,36C77.25,36,76.91,35.5,76.91,34.59Z" style="fill:#1e1e1e"/><path d="M82.06,35.5l.31-.41a1.62,1.62,0,0,0,1,.43c.48,0,.71-.25.71-.56s-.42-.54-.82-.68-1.07-.43-1.07-1,.46-1,1.24-1a1.73,1.73,0,0,1,1.11.41L84.3,33a1.35,1.35,0,0,0-.82-.32c-.45,0-.65.25-.65.52s.39.47.79.62,1.1.41,1.1,1.09S84.25,36,83.4,36A2.17,2.17,0,0,1,82.06,35.5Z" style="fill:#1e1e1e"/><path d="M85.56,30.64h.61v1.43l0,.74a1.73,1.73,0,0,1,1.19-.59c.76,0,1.1.49,1.1,1.4V35.9h-.61V33.71c0-.68-.21-1-.68-1a1.37,1.37,0,0,0-1,.55v2.6h-.61Z" style="fill:#1e1e1e"/><path d="M89.32,34.11a1.67,1.67,0,1,1,3.32,0,1.67,1.67,0,1,1-3.32,0Zm2.7,0c0-.83-.42-1.39-1-1.39s-1,.56-1,1.39.42,1.38,1,1.38S92,34.93,92,34.11Z" style="fill:#1e1e1e"/><path d="M93.59,32.31h.5l.06.41h0a1.85,1.85,0,0,1,1.14-.5c.93,0,1.42.72,1.42,1.83S96,36,95.18,36a1.66,1.66,0,0,1-1-.41l0,.63v1.21h-.61Zm2.51,1.74c0-.79-.26-1.32-.94-1.32a1.5,1.5,0,0,0-1,.49V35.1a1.37,1.37,0,0,0,.88.38C95.67,35.48,96.1,34.94,96.1,34.05Z" style="fill:#1e1e1e"/><path d="M97.49,35.53a.44.44,0,1,1,.88,0,.44.44,0,1,1-.88,0Z" style="fill:#1e1e1e"/></g></svg>