<svg xmlns="http://www.w3.org/2000/svg" viewBox="0 0 550 500"><title>ethnicity-hover-shapes</title><g id="mockup"><rect x="5.7" y="5.36" width="538.6" height="489.29" style="fill:#fff3ee;stroke:#ffb9a6;stroke-miterlimit:10;stroke-width:3px"/><path d="M199.81,42.05H216v4H204.57V52.9h9.62v4h-9.62v7.91h11.8v4H199.81Z" style="fill:#ffb9a6"/><path d="M221.08,62V52.45h-2.87V48.93l3.11-.2.58-5.49h3.93v5.49H231v3.72h-5.12V62c0,2.38.9,3.52,2.83,3.52a5.74,5.74,0,0,0,2.09-.45l.82,3.49a12.85,12.85,0,0,1-4.1.73C222.8,69.33,221.08,66.38,221.08,62Z" style="fill:#ffb9a6"/><path d="M235.17,39.92h4.71v7.45l-.16,3.9c1.68-1.6,3.69-3,6.43-3,4.3,0,6.19,2.91,6.19,8V68.84h-4.72v-12c0-3.32-.94-4.55-3.15-4.55-1.76,0-2.91.86-4.59,2.5V68.84h-4.71Z" style="fill:#ffb9a6"/><path d="M258,48.73h3.89l.33,2.7h.17c1.8-1.76,3.85-3.2,6.59-3.2,4.3,0,6.19,2.91,6.19,8V68.84h-4.71v-12c0-3.32-.95-4.55-3.16-4.55-1.76,0-2.91.86-4.59,2.5V68.84H258Z" style="fill:#ffb9a6"/><path d="M280.44,42.54a2.92,2.92,0,1,1,2.91,2.66A2.7,2.7,0,0,1,280.44,42.54Zm.54,6.19h4.71V68.84H281Z" style="fill:#ffb9a6"/><path d="M290.4,58.8c0-6.71,4.71-10.57,10.08-10.57a8.68,8.68,0,0,1,5.9,2.26l-2.3,3.07a4.91,4.91,0,0,0-3.36-1.47c-3.23,0-5.49,2.66-5.49,6.71s2.21,6.68,5.37,6.68a6.73,6.73,0,0,0,4.14-1.72l1.92,3.12a10.07,10.07,0,0,1-6.55,2.45C294.62,69.33,290.4,65.48,290.4,58.8Z" style="fill:#ffb9a6"/><path d="M310.1,42.54A2.92,2.92,0,1,1,313,45.2,2.7,2.7,0,0,1,310.1,42.54Zm.54,6.19h4.71V68.84h-4.71Z" style="fill:#ffb9a6"/><path d="M322.07,62V52.45H319.2V48.93l3.11-.2.58-5.49h3.93v5.49h5.12v3.72h-5.12V62c0,2.38.9,3.52,2.83,3.52a5.74,5.74,0,0,0,2.09-.45l.82,3.49a12.85,12.85,0,0,1-4.1.73C323.79,69.33,322.07,66.38,322.07,62Z" style="fill:#ffb9a6"/><path d="M334.89,76.71l.86-3.69a5,5,0,0,0,1.43.29c2.14,0,3.36-1.44,4-3.44l.37-1.27-7.91-19.87h4.8l3.48,9.87c.57,1.76,1.14,3.77,1.76,5.65h.16c.49-1.84,1-3.85,1.52-5.65l3-9.87H353l-7.29,21c-1.68,4.55-3.77,7.38-8.16,7.38A8,8,0,0,1,334.89,76.71Z" style="fill:#ffb9a6"/><path d="M47.8,183.63c0-9.86,5.17-16.24,12.38-16.24a7.68,7.68,0,0,1,6.22,3.42L62.6,174a3.34,3.34,0,0,0-2.8-1.75c-2.55,0-4.86,2.05-5.85,6.56a7.06,7.06,0,0,1,4.4-2.08c3.34,0,6,1.86,6,6.3,0,4.66-3.57,9.33-8.73,9.33C50.84,192.36,47.8,188.83,47.8,183.63Zm11-.11c0-1.71-.76-2.69-2.13-2.69-.91,0-2,.53-3.22,2.08,0,.46,0,.91,0,1.37,0,2.39,1.06,3.6,2.51,3.6C58,187.88,58.81,185.3,58.81,183.52Z" style="fill:#ff5b42"/><path d="M67,183.56c0-11.31,5.77-16.17,10.86-16.17,3.94,0,7.06,2.73,7.06,8.88,0,11.31-5.7,16.09-10.78,16.09C70.19,192.36,67,189.63,67,183.56Zm12.38-8c0-2.81-.76-3.57-1.9-3.57-2.28,0-4.86,5-4.86,12.22,0,2.81.76,3.49,1.9,3.49C76.8,187.73,79.38,182.8,79.38,175.59Z" style="fill:#ff5b42"/><path d="M87.27,176c0-5.54,3-9.64,7.43-9.64,3,0,5.47,2.35,5.47,6.15,0,5.54-3,9.64-7.44,9.64C89.77,182.12,87.27,179.76,87.27,176Zm21.4-9.56h3.41l-17.83,26H90.83Zm-12.75,6.14c0-1.67-.53-2.65-1.59-2.65-1.52,0-2.81,2.27-2.81,6,0,1.67.53,2.66,1.59,2.66C94.63,178.55,95.92,176.27,95.92,172.55Zm7.29,13.66c0-5.54,3-9.63,7.43-9.63,3,0,5.47,2.35,5.47,6.14,0,5.54-3,9.64-7.44,9.64C105.71,192.36,103.21,190,103.21,186.21Zm8.65-3.41c0-1.67-.53-2.66-1.6-2.66-1.51,0-2.8,2.28-2.8,6,0,1.67.53,2.65,1.59,2.65C110.57,188.79,111.86,186.52,111.86,182.8Z" style="fill:#ff5b42"/><path d="M123.39,186c0-4,2.59-6.25,5.49-6.25s5.49,2.27,5.49,6.25-2.59,6.19-5.49,6.19S123.39,189.93,123.39,186Zm8.9,0c0-2.74-1.36-4.59-3.41-4.59s-3.41,1.85-3.41,4.59,1.39,4.53,3.41,4.53S132.29,188.71,132.29,186Z" style="fill:#1e1e1e"/><path d="M137.83,181.69h-1.61v-1.51l1.61-.12v-1.88c0-2.42,1.09-3.93,3.46-3.93a5.31,5.31,0,0,1,2,.39l-.43,1.54a3.29,3.29,0,0,0-1.35-.29c-1.12,0-1.65.78-1.65,2.29v1.88h2.51v1.63h-2.51v10.22h-2Z" style="fill:#1e1e1e"/><path d="M149.48,180.06h1.66l.17,1.7h.07a5.59,5.59,0,0,1,4-2c2.48,0,3.6,1.61,3.6,4.64v7.51h-2v-7.24c0-2.22-.69-3.17-2.25-3.17-1.22,0-2.05.63-3.24,1.82v8.59h-2Z" style="fill:#1e1e1e"/><path d="M161.94,186c0-4,2.58-6.25,5.49-6.25s5.48,2.27,5.48,6.25-2.58,6.19-5.48,6.19S161.94,189.93,161.94,186Zm8.9,0c0-2.74-1.37-4.59-3.41-4.59S164,183.27,164,186s1.39,4.53,3.42,4.53S170.84,188.71,170.84,186Z" style="fill:#1e1e1e"/><path d="M176,180.06h1.66l.17,1.7h.07a5.59,5.59,0,0,1,4-2c2.48,0,3.61,1.61,3.61,4.64v7.51h-2v-7.24c0-2.22-.69-3.17-2.25-3.17-1.22,0-2.05.63-3.24,1.82v8.59h-2Z" style="fill:#1e1e1e"/><path d="M188.37,185H194v1.54h-5.61Z" style="fill:#1e1e1e"/><path d="M197.14,175.91h2v6.71h7.44v-6.71h2v16h-2v-7.54h-7.44v7.54h-2Z" style="fill:#1e1e1e"/><path d="M212.48,176.33a1.39,1.39,0,1,1,1.39,1.29A1.3,1.3,0,0,1,212.48,176.33Zm.37,3.73h2v11.85h-2Z" style="fill:#1e1e1e"/><path d="M217.53,190.57l1-1.35a5.31,5.31,0,0,0,3.48,1.42c1.56,0,2.34-.83,2.34-1.85,0-1.22-1.41-1.76-2.7-2.25-1.69-.61-3.54-1.41-3.54-3.41s1.51-3.37,4.07-3.37a6,6,0,0,1,3.69,1.34l-1,1.27a4.42,4.42,0,0,0-2.71-1.05c-1.49,0-2.17.81-2.17,1.71,0,1.12,1.29,1.54,2.63,2.05,1.71.63,3.61,1.34,3.61,3.58,0,1.93-1.54,3.54-4.34,3.54A7.16,7.16,0,0,1,217.53,190.57Z" style="fill:#1e1e1e"/><path d="M229.06,180.06h1.66l.17,1.36H231a6.14,6.14,0,0,1,3.78-1.66c3,0,4.68,2.37,4.68,6.05,0,4-2.41,6.39-5.12,6.39a5.46,5.46,0,0,1-3.29-1.37l.05,2.08v4h-2Zm8.29,5.75c0-2.61-.88-4.36-3.12-4.36a5,5,0,0,0-3.17,1.61v6.21a4.65,4.65,0,0,0,2.9,1.25C235.91,190.52,237.35,188.74,237.35,185.81Z" style="fill:#1e1e1e"/><path d="M241.52,188.83c0-2.58,2.22-3.87,7.26-4.43,0-1.52-.48-3-2.44-3a6.48,6.48,0,0,0-3.53,1.27L242,181.3a8.77,8.77,0,0,1,4.66-1.54c2.9,0,4.12,1.93,4.12,4.88v7.27h-1.66l-.17-1.42h-.07A6.33,6.33,0,0,1,245,192.2,3.22,3.22,0,0,1,241.52,188.83Zm7.26.17v-3.29c-3.95.49-5.31,1.47-5.31,3,0,1.34.92,1.9,2.09,1.9A4.77,4.77,0,0,0,248.78,189Z" style="fill:#1e1e1e"/><path d="M254.54,180.06h1.65l.18,1.7h.07a5.59,5.59,0,0,1,4-2c2.49,0,3.61,1.61,3.61,4.64v7.51h-2v-7.24c0-2.22-.68-3.17-2.24-3.17-1.22,0-2,.63-3.24,1.82v8.59h-2Z" style="fill:#1e1e1e"/><path d="M267.51,176.33a1.39,1.39,0,1,1,1.39,1.29A1.3,1.3,0,0,1,267.51,176.33Zm.36,3.73h2v11.85h-2Z" style="fill:#1e1e1e"/><path d="M273,186c0-4,2.66-6.25,5.71-6.25a4.94,4.94,0,0,1,3.46,1.39l-1,1.32a3.5,3.5,0,0,0-2.37-1.05c-2.14,0-3.7,1.85-3.7,4.59s1.48,4.53,3.65,4.53a4.24,4.24,0,0,0,2.78-1.19l.88,1.34a5.77,5.77,0,0,1-3.83,1.51C275.41,192.2,273,189.93,273,186Z" style="fill:#1e1e1e"/><path d="M288.45,179.81H292l1.17,5.61c.2,1.2.34,2.37.54,3.58h.09c.22-1.21.42-2.43.71-3.58l1.34-5.61H299l1.37,5.61c.29,1.2.51,2.37.75,3.58h.1c.22-1.21.34-2.38.56-3.58l1.15-5.61h3.31l-2.9,12.1h-4.19l-1.1-4.83c-.25-1.12-.44-2.24-.66-3.54h-.1c-.22,1.3-.39,2.42-.61,3.54l-1.07,4.83h-4.1Z" style="fill:#1e1e1e"/><path d="M308.37,174.81H312V179l-.17,2.17a5.53,5.53,0,0,1,3.73-1.66c2.64,0,3.76,1.85,3.76,4.88v7.51h-3.59v-7c0-1.76-.46-2.29-1.48-2.29a3,3,0,0,0-2.25,1.17v8.17h-3.58Z" style="fill:#1e1e1e"/><path d="M322,176.15a2.08,2.08,0,1,1,2.07,1.88A1.9,1.9,0,0,1,322,176.15Zm.29,3.66h3.59v12.1h-3.59Z" style="fill:#1e1e1e"/><path d="M329.51,187.52v-4.9h-1.66V180l1.85-.15.42-3.22h3v3.22H336v2.81h-2.9v4.85c0,1.36.61,1.93,1.56,1.93a3.52,3.52,0,0,0,1.15-.25l.56,2.61a8.58,8.58,0,0,1-2.68.44C330.68,192.2,329.51,190.32,329.51,187.52Z" style="fill:#1e1e1e"/><path d="M337.21,185.86c0-3.93,2.81-6.34,5.71-6.34,3.44,0,5.14,2.51,5.14,5.8a8.26,8.26,0,0,1-.14,1.59h-7.25a2.94,2.94,0,0,0,3.15,2.56,4.86,4.86,0,0,0,2.61-.81l1.19,2.17a7.85,7.85,0,0,1-4.29,1.37C339.87,192.2,337.21,189.86,337.21,185.86Zm7.8-1.32c0-1.34-.58-2.29-2-2.29a2.4,2.4,0,0,0-2.34,2.29Z" style="fill:#1e1e1e"/><path d="M349.47,190.52l1.61-2.25a5.23,5.23,0,0,0,3.13,1.27c1.07,0,1.53-.39,1.53-1,0-.81-1.22-1.17-2.46-1.66-1.46-.56-3.2-1.56-3.2-3.56,0-2.24,1.83-3.78,4.64-3.78a6.93,6.93,0,0,1,4.26,1.54l-1.6,2.14a4.5,4.5,0,0,0-2.57-1c-.92,0-1.36.34-1.36.95,0,.78,1.12,1.07,2.36,1.54,1.54.56,3.27,1.41,3.27,3.63s-1.73,3.9-5,3.9A7.81,7.81,0,0,1,349.47,190.52Z" style="fill:#1e1e1e"/><path d="M365.76,186c0-4,2.59-6.25,5.49-6.25s5.48,2.27,5.48,6.25-2.58,6.19-5.48,6.19S365.76,189.93,365.76,186Zm8.9,0c0-2.74-1.36-4.59-3.41-4.59s-3.42,1.85-3.42,4.59,1.39,4.53,3.42,4.53S374.66,188.71,374.66,186Z" style="fill:#1e1e1e"/><path d="M378.34,180.06h2.05l1.76,6.85c.26,1.12.48,2.19.7,3.29h.1c.27-1.1.51-2.19.8-3.29l1.83-6.85h1.95l1.86,6.85c.29,1.12.56,2.19.83,3.29h.09c.27-1.1.49-2.17.74-3.29l1.73-6.85h1.9l-3.17,11.85h-2.44l-1.71-6.37c-.29-1.12-.51-2.22-.8-3.41h-.1c-.27,1.19-.51,2.32-.83,3.44L384,191.91h-2.34Z" style="fill:#1e1e1e"/><path d="M397.26,180.06h1.66l.17,1.7h.07a5.61,5.61,0,0,1,4-2c2.48,0,3.61,1.61,3.61,4.64v7.51h-2v-7.24c0-2.22-.69-3.17-2.25-3.17-1.22,0-2,.63-3.24,1.82v8.59h-2Z" style="fill:#1e1e1e"/><path d="M414.16,190.57l1-1.35a5.31,5.31,0,0,0,3.48,1.42c1.56,0,2.34-.83,2.34-1.85,0-1.22-1.41-1.76-2.7-2.25-1.68-.61-3.54-1.41-3.54-3.41s1.51-3.37,4.07-3.37a6,6,0,0,1,3.69,1.34l-.95,1.27a4.42,4.42,0,0,0-2.71-1.05c-1.49,0-2.17.81-2.17,1.71,0,1.12,1.29,1.54,2.63,2.05,1.71.63,3.61,1.34,3.61,3.58,0,1.93-1.53,3.54-4.34,3.54A7.16,7.16,0,0,1,414.16,190.57Z" style="fill:#1e1e1e"/><path d="M425.54,188.25v-6.56h-1.75v-1.51l1.85-.12.24-3.32h1.69v3.32h3.19v1.63h-3.19v6.58c0,1.47.46,2.3,1.83,2.3a4.23,4.23,0,0,0,1.34-.32l.39,1.51a7.35,7.35,0,0,1-2.2.44C426.4,192.2,425.54,190.59,425.54,188.25Z" style="fill:#1e1e1e"/><path d="M432.22,186c0-4,2.59-6.25,5.49-6.25S443.2,182,443.2,186s-2.59,6.19-5.49,6.19S432.22,189.93,432.22,186Zm8.9,0c0-2.74-1.36-4.59-3.41-4.59s-3.41,1.85-3.41,4.59,1.39,4.53,3.41,4.53S441.12,188.71,441.12,186Z" style="fill:#1e1e1e"/><path d="M445.44,186c0-4,2.66-6.25,5.7-6.25a5,5,0,0,1,3.47,1.39l-1,1.32a3.46,3.46,0,0,0-2.36-1.05c-2.15,0-3.71,1.85-3.71,4.59s1.49,4.53,3.66,4.53a4.24,4.24,0,0,0,2.78-1.19l.88,1.34A5.81,5.81,0,0,1,451,192.2C447.85,192.2,445.44,189.93,445.44,186Z" style="fill:#1e1e1e"/><path d="M457.43,174.55h2V186.3h.07l5-6.24h2.22l-4,4.75,4.51,7.1h-2.19l-3.46-5.71-2.22,2.59v3.12h-2Z" style="fill:#1e1e1e"/><path d="M469.4,190.69a1.46,1.46,0,1,1,2.91,0,1.46,1.46,0,1,1-2.91,0Z" style="fill:#1e1e1e"/><path d="M45.22,270.76l3.8-3.11a6.21,6.21,0,0,0,4.63,2.66c2.28,0,3.64-1,3.64-2.73,0-1.9-1.06-3-5.54-3l.84-4.25c4.7,0,5.92-1.37,5.92-3.27,0-1.29-1-2.12-2.58-2.12a6.84,6.84,0,0,0-3.5,1.36l-2.88-3.87a12.6,12.6,0,0,1,7.51-2.27c4.48,0,7.67,2.35,7.67,5.92,0,3-1.21,5-5,6.37v.15a5.27,5.27,0,0,1,3.64,5c0,4.94-4.17,7.52-9.56,7.52A10.39,10.39,0,0,1,45.22,270.76Z" style="fill:#ff5b42"/><path d="M78.92,255.74H69.28l1-5.09H86.66l-.76,3.8c-7.13,6.52-9.1,13.66-10.55,20.26H69.13C71.41,266.59,74.21,260.44,78.92,255.74Z" style="fill:#ff5b42"/><path d="M87.27,258.77c0-5.54,3-9.64,7.43-9.64,3,0,5.47,2.36,5.47,6.15,0,5.54-3,9.64-7.44,9.64C89.77,264.92,87.27,262.57,87.27,258.77Zm21.4-9.56h3.41l-17.83,26H90.83Zm-12.75,6.15c0-1.67-.53-2.66-1.59-2.66-1.52,0-2.81,2.28-2.81,6,0,1.67.53,2.65,1.59,2.65C94.63,261.35,95.92,259.08,95.92,255.36ZM103.21,269c0-5.54,3-9.64,7.43-9.64,3,0,5.47,2.35,5.47,6.15,0,5.54-3,9.64-7.44,9.64C105.71,275.17,103.21,272.81,103.21,269Zm8.65-3.42c0-1.67-.53-2.65-1.6-2.65-1.51,0-2.8,2.27-2.8,6,0,1.67.53,2.66,1.59,2.66C110.57,271.6,111.86,269.32,111.86,265.6Z" style="fill:#ff5b42"/><path d="M123.39,268.81c0-4,2.59-6.24,5.49-6.24s5.49,2.27,5.49,6.24-2.59,6.19-5.49,6.19S123.39,272.74,123.39,268.81Zm8.9,0c0-2.73-1.36-4.58-3.41-4.58s-3.41,1.85-3.41,4.58,1.39,4.54,3.41,4.54S132.29,271.52,132.29,268.81Z" style="fill:#1e1e1e"/><path d="M137.83,264.49h-1.61V263l1.61-.12V261c0-2.41,1.09-3.92,3.46-3.92a5.31,5.31,0,0,1,2,.39l-.43,1.53a3.45,3.45,0,0,0-1.35-.29c-1.12,0-1.65.78-1.65,2.29v1.88h2.51v1.63h-2.51v10.22h-2Z" style="fill:#1e1e1e"/><path d="M149.36,258.81h3.58v6.12h5.49v-6.12H162v15.9h-3.61v-6.63h-5.49v6.63h-3.58Z" style="fill:#1e1e1e"/><path d="M165.21,259a2.08,2.08,0,1,1,2.07,1.88A1.91,1.91,0,0,1,165.21,259Zm.29,3.66h3.58v12.09H165.5Z" style="fill:#1e1e1e"/><path d="M171.15,273.32l1.61-2.24a5.22,5.22,0,0,0,3.12,1.27c1.08,0,1.54-.39,1.54-1,0-.8-1.22-1.17-2.46-1.66-1.46-.56-3.2-1.56-3.2-3.56,0-2.24,1.83-3.78,4.64-3.78a6.93,6.93,0,0,1,4.26,1.54L179.05,266a4.39,4.39,0,0,0-2.56-1c-.92,0-1.36.34-1.36.95,0,.78,1.12,1.08,2.36,1.54,1.54.56,3.27,1.41,3.27,3.63s-1.73,3.9-5,3.9A7.81,7.81,0,0,1,171.15,273.32Z" style="fill:#1e1e1e"/><path d="M183,262.62H186l.25,1.19h.1a5.33,5.33,0,0,1,3.43-1.49c2.93,0,4.73,2.42,4.73,6.15,0,4.14-2.48,6.53-5.09,6.53a4.2,4.2,0,0,1-2.88-1.26l.12,1.92v3.54H183Zm7.75,5.9c0-2.17-.66-3.27-2.09-3.27a2.79,2.79,0,0,0-2.08,1.1v4.95a2.82,2.82,0,0,0,1.93.78C189.78,272.08,190.78,271,190.78,268.52Z" style="fill:#1e1e1e"/><path d="M196.17,271.35c0-2.54,2-3.93,6.8-4.42a1.66,1.66,0,0,0-1.9-1.75,6.44,6.44,0,0,0-3.19,1.09l-1.3-2.36a10,10,0,0,1,5.17-1.59c3.1,0,4.81,1.76,4.81,5.47v6.92h-2.93l-.24-1.24h-.1a5.27,5.27,0,0,1-3.51,1.53A3.48,3.48,0,0,1,196.17,271.35Zm6.8-.15v-2.12c-2.53.34-3.36,1.07-3.36,2s.53,1.14,1.39,1.14A2.69,2.69,0,0,0,203,271.2Z" style="fill:#1e1e1e"/><path d="M209.58,262.62h2.92l.25,1.53h.1a5.58,5.58,0,0,1,3.87-1.83c2.64,0,3.76,1.86,3.76,4.88v7.51h-3.59v-7c0-1.75-.46-2.29-1.48-2.29a3.08,3.08,0,0,0-2.25,1.17v8.17h-3.58Z" style="fill:#1e1e1e"/><path d="M223.23,259a2.09,2.09,0,1,1,2.07,1.88A1.92,1.92,0,0,1,223.23,259Zm.29,3.66h3.59v12.09h-3.59Z" style="fill:#1e1e1e"/><path d="M229.55,268.66a6.08,6.08,0,0,1,6.29-6.34,5.3,5.3,0,0,1,3.53,1.3l-1.68,2.31a2.49,2.49,0,0,0-1.63-.7c-1.73,0-2.83,1.34-2.83,3.43s1.15,3.44,2.71,3.44a3.7,3.7,0,0,0,2.17-.88l1.41,2.35a6.06,6.06,0,0,1-4,1.43C232.16,275,229.55,272.69,229.55,268.66Z" style="fill:#1e1e1e"/><path d="M240.27,267.27h6v2.54h-6Z" style="fill:#1e1e1e"/><path d="M252.15,258.81h4.31l5,15.9h-3.81l-1-3.78h-4.85l-1,3.78h-3.66Zm.39,9.32h3.39l-.37-1.46c-.44-1.59-.88-3.47-1.29-5.13h-.1c-.39,1.69-.8,3.54-1.24,5.13Z" style="fill:#1e1e1e"/><path d="M262.88,262.62h2.92l.24,1.56h.1a5.07,5.07,0,0,1,3.66-1.86,3.35,3.35,0,0,1,3.34,2,5.28,5.28,0,0,1,3.8-2c2.61,0,3.78,1.86,3.78,4.88v7.51h-3.58v-7c0-1.75-.46-2.29-1.49-2.29a3.19,3.19,0,0,0-2.07,1.17v8.17H270v-7c0-1.75-.47-2.29-1.49-2.29a3.14,3.14,0,0,0-2.05,1.17v8.17h-3.58Z" style="fill:#1e1e1e"/><path d="M283.06,268.66c0-3.92,2.81-6.34,5.71-6.34,3.44,0,5.14,2.52,5.14,5.81a8.22,8.22,0,0,1-.14,1.58h-7.25a2.93,2.93,0,0,0,3.15,2.56,4.94,4.94,0,0,0,2.61-.8l1.19,2.17a7.92,7.92,0,0,1-4.29,1.36C285.72,275,283.06,272.66,283.06,268.66Zm7.81-1.31c0-1.34-.59-2.29-2-2.29a2.39,2.39,0,0,0-2.34,2.29Z" style="fill:#1e1e1e"/><path d="M296.4,262.62h2.92l.25,2.12h.1a4,4,0,0,1,3.43-2.42,3.38,3.38,0,0,1,1.44.25l-.58,3.1a4.3,4.3,0,0,0-1.32-.2,3,3,0,0,0-2.66,2.22v7H296.4Z" style="fill:#1e1e1e"/><path d="M305.81,259a2.09,2.09,0,1,1,2.07,1.88A1.92,1.92,0,0,1,305.81,259Zm.29,3.66h3.59v12.09H306.1Z" style="fill:#1e1e1e"/><path d="M312.12,268.66a6.08,6.08,0,0,1,6.3-6.34,5.32,5.32,0,0,1,3.53,1.3l-1.68,2.31a2.51,2.51,0,0,0-1.64-.7c-1.73,0-2.82,1.34-2.82,3.43s1.14,3.44,2.7,3.44a3.68,3.68,0,0,0,2.17-.88l1.42,2.35a6.08,6.08,0,0,1-4,1.43C314.73,275,312.12,272.69,312.12,268.66Z" style="fill:#1e1e1e"/><path d="M323.41,271.35c0-2.54,2-3.93,6.8-4.42a1.66,1.66,0,0,0-1.9-1.75,6.44,6.44,0,0,0-3.19,1.09l-1.29-2.36a9.93,9.93,0,0,1,5.17-1.59c3.09,0,4.8,1.76,4.8,5.47v6.92h-2.93l-.24-1.24h-.1A5.25,5.25,0,0,1,327,275,3.48,3.48,0,0,1,323.41,271.35Zm6.8-.15v-2.12c-2.53.34-3.36,1.07-3.36,2s.54,1.14,1.39,1.14A2.69,2.69,0,0,0,330.21,271.2Z" style="fill:#1e1e1e"/><path d="M336.82,262.62h2.93l.24,1.53h.1a5.58,5.58,0,0,1,3.88-1.83c2.63,0,3.75,1.86,3.75,4.88v7.51h-3.58v-7c0-1.75-.47-2.29-1.49-2.29a3.08,3.08,0,0,0-2.24,1.17v8.17h-3.59Z" style="fill:#1e1e1e"/><path d="M349.69,273.32l1.61-2.24a5.22,5.22,0,0,0,3.12,1.27c1.08,0,1.54-.39,1.54-1,0-.8-1.22-1.17-2.46-1.66-1.46-.56-3.2-1.56-3.2-3.56,0-2.24,1.83-3.78,4.64-3.78a6.93,6.93,0,0,1,4.26,1.54L357.59,266a4.39,4.39,0,0,0-2.55-1c-.93,0-1.37.34-1.37.95,0,.78,1.12,1.08,2.36,1.54,1.54.56,3.27,1.41,3.27,3.63s-1.73,3.9-5,3.9A7.81,7.81,0,0,1,349.69,273.32Z" style="fill:#1e1e1e"/><path d="M366,268.81c0-4,2.59-6.24,5.49-6.24s5.48,2.27,5.48,6.24-2.58,6.19-5.48,6.19S366,272.74,366,268.81Zm8.9,0c0-2.73-1.36-4.58-3.41-4.58s-3.42,1.85-3.42,4.58,1.39,4.54,3.42,4.54S374.88,271.52,374.88,268.81Z" style="fill:#1e1e1e"/><path d="M378.56,262.86h2.05l1.76,6.85c.26,1.12.48,2.2.7,3.29h.1c.27-1.09.51-2.19.8-3.29l1.83-6.85h1.95l1.86,6.85c.29,1.12.56,2.2.83,3.29h.09c.27-1.09.49-2.17.74-3.29l1.73-6.85h1.9l-3.17,11.85h-2.44l-1.71-6.36c-.29-1.12-.51-2.22-.8-3.42h-.1c-.27,1.2-.51,2.32-.83,3.44l-1.66,6.34h-2.34Z" style="fill:#1e1e1e"/><path d="M397.48,262.86h1.66l.17,1.71h.07a5.59,5.59,0,0,1,4-2c2.48,0,3.61,1.61,3.61,4.63v7.51h-2v-7.24c0-2.22-.69-3.17-2.25-3.17-1.22,0-2.05.63-3.24,1.83v8.58h-2Z" style="fill:#1e1e1e"/><path d="M414.38,273.37l1-1.34a5.3,5.3,0,0,0,3.48,1.41c1.56,0,2.34-.83,2.34-1.85,0-1.22-1.41-1.76-2.7-2.24-1.68-.61-3.54-1.42-3.54-3.42s1.51-3.36,4.07-3.36a6,6,0,0,1,3.69,1.34l-1,1.27a4.42,4.42,0,0,0-2.71-1.05c-1.49,0-2.17.8-2.17,1.71,0,1.12,1.29,1.53,2.63,2,1.71.64,3.61,1.35,3.61,3.59,0,1.92-1.54,3.53-4.34,3.53A7.1,7.1,0,0,1,414.38,273.37Z" style="fill:#1e1e1e"/><path d="M425.76,271.05v-6.56H424V263l1.85-.12.24-3.32h1.69v3.32H431v1.63h-3.19v6.59c0,1.46.46,2.29,1.83,2.29a4.23,4.23,0,0,0,1.34-.32l.39,1.51a7.35,7.35,0,0,1-2.2.44C426.62,275,425.76,273.39,425.76,271.05Z" style="fill:#1e1e1e"/><path d="M432.44,268.81c0-4,2.59-6.24,5.49-6.24s5.49,2.27,5.49,6.24-2.59,6.19-5.49,6.19S432.44,272.74,432.44,268.81Zm8.9,0c0-2.73-1.36-4.58-3.41-4.58s-3.41,1.85-3.41,4.58,1.39,4.54,3.41,4.54S441.34,271.52,441.34,268.81Z" style="fill:#1e1e1e"/><path d="M445.66,268.81c0-4,2.66-6.24,5.7-6.24a4.92,4.92,0,0,1,3.47,1.39l-1,1.31a3.49,3.49,0,0,0-2.36-1c-2.15,0-3.71,1.85-3.71,4.58s1.49,4.54,3.66,4.54a4.2,4.2,0,0,0,2.78-1.2l.88,1.34a5.81,5.81,0,0,1-3.83,1.51C448.07,275,445.66,272.74,445.66,268.81Z" style="fill:#1e1e1e"/><path d="M457.65,257.35h2V269.1h.07l5.05-6.24H467l-4,4.76,4.51,7.09h-2.19l-3.46-5.7-2.22,2.58v3.12h-2Z" style="fill:#1e1e1e"/><path d="M469.62,273.49a1.46,1.46,0,1,1,2.91,0,1.46,1.46,0,1,1-2.91,0Z" style="fill:#1e1e1e"/><path d="M45.22,353.57l3.8-3.11a6.23,6.23,0,0,0,4.63,2.65c2.28,0,3.64-1,3.64-2.73s-1.06-3-5.54-3l.84-4.25c4.7,0,5.92-1.37,5.92-3.26,0-1.29-1-2.13-2.58-2.13-1.07,0-2,.46-3.5,1.37l-2.88-3.87A12.55,12.55,0,0,1,57.06,333c4.48,0,7.67,2.35,7.67,5.92,0,3-1.21,5.05-5,6.38v.15a5.26,5.26,0,0,1,3.64,5c0,4.93-4.17,7.51-9.56,7.51A10.41,10.41,0,0,1,45.22,353.57Z" style="fill:#ff5b42"/><path d="M67.54,349.24c0-9.86,5.16-16.24,12.37-16.24a7.66,7.66,0,0,1,6.22,3.42l-3.79,3.18a3.38,3.38,0,0,0-2.81-1.74c-2.54,0-4.86,2.05-5.85,6.56a7.06,7.06,0,0,1,4.41-2.08c3.34,0,6,1.86,6,6.3,0,4.66-3.57,9.33-8.73,9.33C70.57,358,67.54,354.44,67.54,349.24Zm11-.11c0-1.71-.76-2.7-2.12-2.7-.92,0-2,.54-3.23,2.09,0,.46,0,.91,0,1.37,0,2.39,1.06,3.6,2.51,3.6C77.71,353.49,78.54,350.91,78.54,349.13Z" style="fill:#ff5b42"/><path d="M87.27,341.58c0-5.54,3-9.64,7.43-9.64,3,0,5.47,2.35,5.47,6.15,0,5.54-3,9.64-7.44,9.64C89.77,347.73,87.27,345.37,87.27,341.58Zm21.4-9.57h3.41L94.25,358H90.83Zm-12.75,6.15c0-1.67-.53-2.65-1.59-2.65-1.52,0-2.81,2.27-2.81,6,0,1.67.53,2.66,1.59,2.66C94.63,344.16,95.92,341.88,95.92,338.16Zm7.29,13.66c0-5.54,3-9.64,7.43-9.64,3,0,5.47,2.36,5.47,6.15,0,5.54-3,9.64-7.44,9.64C105.71,358,103.21,355.62,103.21,351.82Zm8.65-3.41c0-1.67-.53-2.66-1.6-2.66-1.51,0-2.8,2.28-2.8,6,0,1.67.53,2.65,1.59,2.65C110.57,354.4,111.86,352.13,111.86,348.41Z" style="fill:#ff5b42"/><path d="M123.39,351.61c0-4,2.59-6.24,5.49-6.24s5.49,2.27,5.49,6.24-2.59,6.2-5.49,6.2S123.39,355.54,123.39,351.61Zm8.9,0c0-2.73-1.36-4.58-3.41-4.58s-3.41,1.85-3.41,4.58,1.39,4.54,3.41,4.54S132.29,354.32,132.29,351.61Z" style="fill:#1e1e1e"/><path d="M137.83,347.3h-1.61v-1.51l1.61-.12v-1.88c0-2.42,1.09-3.93,3.46-3.93a5.31,5.31,0,0,1,2,.39l-.43,1.54a3.29,3.29,0,0,0-1.35-.29c-1.12,0-1.65.78-1.65,2.29v1.88h2.51v1.63h-2.51v10.22h-2Z" style="fill:#1e1e1e"/><path d="M152.31,341.62h4.31l5,15.9h-3.81l-1-3.78H152l-1,3.78h-3.66Zm.39,9.31h3.39l-.37-1.46c-.44-1.59-.88-3.46-1.29-5.12h-.1c-.39,1.68-.8,3.53-1.24,5.12Z" style="fill:#1e1e1e"/><path d="M163.4,348.23h-1.61v-2.66l1.61-.12v-.66c0-2.56,1.2-4.66,4.46-4.66a7.16,7.16,0,0,1,2.42.44l-.66,2.63a4,4,0,0,0-1.24-.24c-.88,0-1.39.49-1.39,1.73v.73h2.17v2.81H167v9.29H163.4Z" style="fill:#1e1e1e"/><path d="M171.11,345.42H174l.25,2.12h.09a4.06,4.06,0,0,1,3.44-2.41,3.61,3.61,0,0,1,1.44.24l-.58,3.1a4.62,4.62,0,0,0-1.32-.2,3,3,0,0,0-2.66,2.22v7h-3.58Z" style="fill:#1e1e1e"/><path d="M180.52,341.76a2.08,2.08,0,1,1,2.07,1.88A1.89,1.89,0,0,1,180.52,341.76Zm.29,3.66h3.58v12.1h-3.58Z" style="fill:#1e1e1e"/><path d="M186.83,351.47a6.08,6.08,0,0,1,6.29-6.34,5.39,5.39,0,0,1,3.54,1.29L195,348.74a2.45,2.45,0,0,0-1.63-.71c-1.73,0-2.83,1.34-2.83,3.44s1.15,3.44,2.71,3.44a3.68,3.68,0,0,0,2.17-.88l1.41,2.34a6,6,0,0,1-4,1.44C189.44,357.81,186.83,355.49,186.83,351.47Z" style="fill:#1e1e1e"/><path d="M198.12,354.15c0-2.54,2-3.92,6.8-4.41A1.67,1.67,0,0,0,203,348a6.46,6.46,0,0,0-3.19,1.1l-1.3-2.37a10.07,10.07,0,0,1,5.17-1.58c3.1,0,4.81,1.75,4.81,5.46v6.93h-2.93l-.24-1.25h-.1a5.28,5.28,0,0,1-3.51,1.54A3.48,3.48,0,0,1,198.12,354.15Zm6.8-.15v-2.12c-2.53.34-3.36,1.08-3.36,2S202.09,355,203,355A2.67,2.67,0,0,0,204.92,354Z" style="fill:#1e1e1e"/><path d="M211.53,345.42h2.93l.24,1.54h.1a5.54,5.54,0,0,1,3.87-1.83c2.64,0,3.76,1.85,3.76,4.88v7.51h-3.59v-7c0-1.76-.46-2.29-1.48-2.29a3.06,3.06,0,0,0-2.25,1.17v8.17h-3.58Z" style="fill:#1e1e1e"/><path d="M224.94,350.08h6v2.53h-6Z" style="fill:#1e1e1e"/><path d="M236.81,341.62h4.32l5,15.9h-3.8l-1-3.78h-4.85l-1,3.78h-3.66Zm.39,9.31h3.39l-.36-1.46c-.44-1.59-.88-3.46-1.3-5.12h-.09c-.39,1.68-.81,3.53-1.25,5.12Z" style="fill:#1e1e1e"/><path d="M247.54,345.42h2.92l.25,1.56h.1a5.05,5.05,0,0,1,3.65-1.85,3.33,3.33,0,0,1,3.34,2,5.34,5.34,0,0,1,3.81-2c2.61,0,3.78,1.85,3.78,4.88v7.51H261.8v-7c0-1.76-.46-2.29-1.48-2.29a3.21,3.21,0,0,0-2.08,1.17v8.17h-3.58v-7c0-1.76-.46-2.29-1.49-2.29a3.18,3.18,0,0,0-2,1.17v8.17h-3.58Z" style="fill:#1e1e1e"/><path d="M267.73,351.47c0-3.93,2.8-6.34,5.7-6.34,3.44,0,5.15,2.51,5.15,5.8a8.18,8.18,0,0,1-.15,1.59h-7.24a2.93,2.93,0,0,0,3.14,2.56,4.81,4.81,0,0,0,2.61-.81l1.2,2.17a7.87,7.87,0,0,1-4.29,1.37C270.38,357.81,267.73,355.47,267.73,351.47Zm7.8-1.32c0-1.34-.59-2.29-2-2.29a2.4,2.4,0,0,0-2.34,2.29Z" style="fill:#1e1e1e"/><path d="M281.06,345.42H284l.24,2.12h.1a4,4,0,0,1,3.44-2.41,3.61,3.61,0,0,1,1.44.24l-.59,3.1a4.57,4.57,0,0,0-1.32-.2,3,3,0,0,0-2.65,2.22v7h-3.59Z" style="fill:#1e1e1e"/><path d="M290.47,341.76a1.9,1.9,0,0,1,2.08-1.85,1.88,1.88,0,1,1,0,3.73A1.92,1.92,0,0,1,290.47,341.76Zm.3,3.66h3.58v12.1h-3.58Z" style="fill:#1e1e1e"/><path d="M296.79,351.47a6.08,6.08,0,0,1,6.29-6.34,5.34,5.34,0,0,1,3.53,1.29l-1.68,2.32a2.45,2.45,0,0,0-1.63-.71c-1.73,0-2.83,1.34-2.83,3.44s1.15,3.44,2.71,3.44a3.7,3.7,0,0,0,2.17-.88l1.41,2.34a6,6,0,0,1-4,1.44C299.4,357.81,296.79,355.49,296.79,351.47Z" style="fill:#1e1e1e"/><path d="M308.08,354.15c0-2.54,2-3.92,6.8-4.41A1.67,1.67,0,0,0,313,348a6.46,6.46,0,0,0-3.2,1.1l-1.29-2.37a10.07,10.07,0,0,1,5.17-1.58c3.1,0,4.8,1.75,4.8,5.46v6.93h-2.92l-.25-1.25h-.09a5.3,5.3,0,0,1-3.51,1.54A3.48,3.48,0,0,1,308.08,354.15Zm6.8-.15v-2.12c-2.54.34-3.37,1.08-3.37,2s.54,1.15,1.39,1.15A2.67,2.67,0,0,0,314.88,354Z" style="fill:#1e1e1e"/><path d="M321.49,345.42h2.92l.25,1.54h.09a5.58,5.58,0,0,1,3.88-1.83c2.63,0,3.76,1.85,3.76,4.88v7.51H328.8v-7c0-1.76-.46-2.29-1.49-2.29a3,3,0,0,0-2.24,1.17v8.17h-3.58Z" style="fill:#1e1e1e"/><path d="M334.36,356.13l1.61-2.25a5.22,5.22,0,0,0,3.12,1.27c1.07,0,1.53-.39,1.53-1,0-.81-1.21-1.17-2.46-1.66-1.46-.56-3.19-1.56-3.19-3.56,0-2.24,1.83-3.78,4.63-3.78a6.92,6.92,0,0,1,4.27,1.54l-1.61,2.14a4.5,4.5,0,0,0-2.56-1c-.93,0-1.37.34-1.37.95,0,.78,1.13,1.07,2.37,1.53,1.53.56,3.27,1.42,3.27,3.64s-1.74,3.9-5,3.9A7.81,7.81,0,0,1,334.36,356.13Z" style="fill:#1e1e1e"/><path d="M350.65,351.61c0-4,2.58-6.24,5.48-6.24s5.49,2.27,5.49,6.24-2.59,6.2-5.49,6.2S350.65,355.54,350.65,351.61Zm8.89,0c0-2.73-1.36-4.58-3.41-4.58s-3.41,1.85-3.41,4.58,1.39,4.54,3.41,4.54S359.54,354.32,359.54,351.61Z" style="fill:#1e1e1e"/><path d="M363.23,345.67h2l1.76,6.85c.27,1.12.49,2.19.71,3.29h.09c.27-1.1.52-2.2.81-3.29l1.83-6.85h1.95l1.85,6.85c.29,1.12.56,2.19.83,3.29h.1c.27-1.1.49-2.17.73-3.29l1.73-6.85h1.9l-3.17,11.85H374l-1.71-6.37c-.29-1.12-.51-2.22-.81-3.41h-.09c-.27,1.19-.52,2.31-.83,3.44l-1.66,6.34h-2.34Z" style="fill:#1e1e1e"/><path d="M382.14,345.67h1.66l.17,1.7h.08a5.59,5.59,0,0,1,4-2c2.49,0,3.61,1.61,3.61,4.64v7.51h-2v-7.25c0-2.22-.68-3.17-2.24-3.17-1.22,0-2.05.64-3.25,1.83v8.59h-2Z" style="fill:#1e1e1e"/><path d="M399,356.17l1-1.34a5.34,5.34,0,0,0,3.49,1.42c1.56,0,2.34-.83,2.34-1.86,0-1.21-1.42-1.75-2.71-2.24-1.68-.61-3.53-1.41-3.53-3.41s1.51-3.37,4.07-3.37a5.91,5.91,0,0,1,3.68,1.34l-.95,1.27a4.42,4.42,0,0,0-2.71-1.05c-1.48,0-2.17.81-2.17,1.71,0,1.12,1.29,1.54,2.64,2.05,1.7.63,3.6,1.34,3.6,3.58,0,1.93-1.53,3.54-4.34,3.54A7.11,7.11,0,0,1,399,356.17Z" style="fill:#1e1e1e"/><path d="M410.43,353.86V347.3h-1.76v-1.51l1.85-.12.25-3.32h1.68v3.32h3.19v1.63h-3.19v6.58c0,1.47.46,2.29,1.83,2.29a4.5,4.5,0,0,0,1.34-.31l.39,1.51a7.29,7.29,0,0,1-2.19.44C411.28,357.81,410.43,356.2,410.43,353.86Z" style="fill:#1e1e1e"/><path d="M417.11,351.61c0-4,2.58-6.24,5.48-6.24s5.49,2.27,5.49,6.24-2.58,6.2-5.49,6.2S417.11,355.54,417.11,351.61Zm8.9,0c0-2.73-1.37-4.58-3.42-4.58s-3.41,1.85-3.41,4.58,1.39,4.54,3.41,4.54S426,354.32,426,351.61Z" style="fill:#1e1e1e"/><path d="M430.32,351.61c0-4,2.66-6.24,5.71-6.24a4.94,4.94,0,0,1,3.46,1.39l-1,1.32A3.5,3.5,0,0,0,436.1,347c-2.14,0-3.71,1.85-3.71,4.58s1.49,4.54,3.66,4.54a4.24,4.24,0,0,0,2.78-1.19l.88,1.34a5.77,5.77,0,0,1-3.83,1.51C432.74,357.81,430.32,355.54,430.32,351.61Z" style="fill:#1e1e1e"/><path d="M442.32,340.15h2v11.76h.08l5-6.24h2.22l-4,4.75,4.51,7.1H450l-3.46-5.71-2.22,2.58v3.13h-2Z" style="fill:#1e1e1e"/><path d="M454.29,356.3a1.45,1.45,0,1,1,1.46,1.51A1.47,1.47,0,0,1,454.29,356.3Z" style="fill:#1e1e1e"/></g></svg>