<svg xmlns="http://www.w3.org/2000/svg" viewBox="0 0 550 500"><title>ethnicity-shapes</title><g id="mockup"><rect x="5.7" y="5.36" width="538.6" height="489.29" style="fill:none;stroke:#ffb9a6;stroke-miterlimit:10;stroke-width:3px"/><path d="M150.31,223.39h26.78v6.67h-18.9V241.4h16v6.66h-16v13.12h19.58v6.66H150.31Z" style="fill:#fff3ee"/><path d="M185.59,256.56v-15.9h-4.76v-5.85l5.16-.34,1-9.1h6.52v9.1H202v6.19h-8.5v15.9c0,3.94,1.49,5.85,4.69,5.85a9.61,9.61,0,0,0,3.47-.75l1.35,5.77a21,21,0,0,1-6.79,1.23C188.44,268.66,185.59,263.76,185.59,256.56Z" style="fill:#fff3ee"/><path d="M209,219.86h7.81v12.37l-.27,6.46c2.79-2.65,6.12-5,10.67-5,7.14,0,10.26,4.82,10.26,13.25v20.93h-7.81V247.93c0-5.51-1.56-7.54-5.23-7.54-2.93,0-4.83,1.42-7.62,4.14v23.31H209Z" style="fill:#fff3ee"/><path d="M246.89,234.47h6.46l.54,4.49h.28c3-2.92,6.39-5.3,10.94-5.3,7.14,0,10.26,4.82,10.26,13.25v20.93h-7.81V247.93c0-5.51-1.57-7.54-5.24-7.54-2.92,0-4.82,1.42-7.61,4.14v23.31h-7.82Z" style="fill:#fff3ee"/><path d="M284.07,224.21a4.84,4.84,0,0,1,9.65,0c0,2.58-2,4.42-4.82,4.42S284.07,226.79,284.07,224.21Zm.89,10.26h7.81v33.37H285Z" style="fill:#fff3ee"/><path d="M300.59,251.19c0-11.14,7.82-17.53,16.72-17.53a14.38,14.38,0,0,1,9.79,3.74l-3.81,5.09a8.18,8.18,0,0,0-5.57-2.44c-5.37,0-9.11,4.41-9.11,11.14s3.67,11.08,8.9,11.08a11.16,11.16,0,0,0,6.87-2.85l3.19,5.16a16.65,16.65,0,0,1-10.87,4.08C307.59,268.66,300.59,262.27,300.59,251.19Z" style="fill:#fff3ee"/><path d="M333.28,224.21a4.84,4.84,0,0,1,9.65,0c0,2.58-2,4.42-4.82,4.42S333.28,226.79,333.28,224.21Zm.89,10.26H342v33.37h-7.81Z" style="fill:#fff3ee"/><path d="M353.13,256.56v-15.9h-4.76v-5.85l5.17-.34.95-9.1H361v9.1h8.5v6.19H361v15.9c0,3.94,1.5,5.85,4.69,5.85a9.52,9.52,0,0,0,3.47-.75l1.36,5.77a21.13,21.13,0,0,1-6.8,1.23C356,268.66,353.13,263.76,353.13,256.56Z" style="fill:#fff3ee"/><path d="M374.4,280.89l1.43-6.12a8,8,0,0,0,2.38.48c3.53,0,5.57-2.38,6.66-5.71l.61-2.11-13.11-33h7.95l5.77,16.38c1,2.92,1.91,6.25,2.93,9.38h.27c.81-3.06,1.7-6.39,2.51-9.38l5-16.38h7.55l-12.1,34.87c-2.79,7.54-6.25,12.23-13.53,12.23A13,13,0,0,1,374.4,280.89Z" style="fill:#fff3ee"/></g></svg>