<svg xmlns="http://www.w3.org/2000/svg" viewBox="0 0 550 500"><title>gender-hover-shapes</title><g id="mockup"><rect x="5.7" y="5.36" width="538.6" height="489.29" style="fill:#fff3ee"/><path d="M545.8,496.14H4.2V3.86H545.8Zm-538.6-3H542.8V6.86H7.2Z" style="fill:#ffb9a6"/><path d="M212.64,55.53c0-8.77,5.53-14,12.66-14a11,11,0,0,1,8.11,3.4L230.87,48a7.26,7.26,0,0,0-5.41-2.34c-4.75,0-8,3.69-8,9.71s2.83,9.8,8.2,9.8A5.92,5.92,0,0,0,229.56,64V58.23h-5.08V54.34h9.34v11.8a12.29,12.29,0,0,1-8.56,3.19C218,69.33,212.64,64.42,212.64,55.53Z" style="fill:#ffb9a6"/><path d="M238,58.8c0-6.55,4.55-10.57,9.26-10.57,5.45,0,8.31,3.94,8.31,9.55a11.19,11.19,0,0,1-.2,2.29H242.63c.41,3.57,2.7,5.62,5.94,5.62a8.44,8.44,0,0,0,4.67-1.48l1.6,3A12.73,12.73,0,0,1,248,69.33C242.38,69.33,238,65.44,238,58.8Zm13.48-1.92c0-3.11-1.35-5-4.1-5-2.38,0-4.42,1.76-4.83,5Z" style="fill:#ffb9a6"/><path d="M260.12,48.73H264l.33,2.7h.16c1.81-1.76,3.86-3.2,6.6-3.2,4.3,0,6.19,2.91,6.19,8V68.84h-4.71v-12c0-3.32-.95-4.55-3.16-4.55-1.76,0-2.91.86-4.59,2.5V68.84h-4.71Z" style="fill:#ffb9a6"/><path d="M281.83,58.8c0-6.55,4.14-10.57,8.53-10.57a7.4,7.4,0,0,1,5.28,2.22l-.16-3.24V39.92h4.71V68.84H296.3L296,66.67h-.16a8.38,8.38,0,0,1-5.7,2.66C285.07,69.33,281.83,65.44,281.83,58.8Zm13.65,4.39V53.81a6,6,0,0,0-4.1-1.68c-2.58,0-4.67,2.41-4.67,6.63s1.64,6.68,4.55,6.68A5.42,5.42,0,0,0,295.48,63.19Z" style="fill:#ffb9a6"/><path d="M304.86,58.8c0-6.55,4.55-10.57,9.26-10.57,5.45,0,8.32,3.94,8.32,9.55a11.07,11.07,0,0,1-.21,2.29H309.45c.41,3.57,2.7,5.62,5.94,5.62a8.44,8.44,0,0,0,4.67-1.48l1.6,3a12.73,12.73,0,0,1-6.89,2.17C309.2,69.33,304.86,65.44,304.86,58.8Zm13.48-1.92c0-3.11-1.35-5-4.1-5-2.37,0-4.42,1.76-4.83,5Z" style="fill:#ffb9a6"/><path d="M326.94,48.73h3.89l.33,3.56h.17c1.43-2.62,3.56-4.06,5.69-4.06a5.19,5.19,0,0,1,2.29.41l-.81,4.1a6.74,6.74,0,0,0-2.09-.33c-1.6,0-3.53,1.11-4.76,4.14V68.84h-4.71Z" style="fill:#ffb9a6"/><text transform="translate(45.78 149.83)" style="font-size:31.165760040283203px;fill:#ff5b42;font-family:SourceSansPro-BlackIt, Source Sans Pro;font-weight:800;font-style:italic">85%<tspan x="58.72" y="0" xml:space="preserve" style="fill:#1e1e1e;font-size:20.02496910095215px;font-family:SourceSansPro-Regular, Source Sans Pro;font-weight:400;font-style:normal"> of </tspan><tspan x="83.43" y="0" style="fill:#1e1e1e;font-size:20.02496910095215px;font-family:SourceSansPro-Regular, Source Sans Pro;font-weight:400;font-style:normal;letter-spacing:-0.003998913785899047em">w</tspan><tspan x="97.72" y="0" style="fill:#1e1e1e;font-size:20.02496910095215px;font-family:SourceSansPro-Regular, Source Sans Pro;font-weight:400;font-style:normal">omen a</tspan><tspan x="160.16" y="0" style="fill:#1e1e1e;font-size:20.02496910095215px;font-family:SourceSansPro-Regular, Source Sans Pro;font-weight:400;font-style:normal;letter-spacing:-0.013996198250646666em">g</tspan><tspan x="169.97" y="0" style="fill:#1e1e1e;font-size:20.02496910095215px;font-family:SourceSansPro-Regular, Source Sans Pro;font-weight:400;font-style:normal;letter-spacing:0.0000487672412914518em">es 18-60 do</tspan><tspan x="264.31" y="0" style="fill:#1e1e1e;font-size:20.02496910095215px;font-family:SourceSansPro-Regular, Source Sans Pro;font-weight:400;font-style:normal;letter-spacing:-0.019945801688203785em">n</tspan><tspan x="274.86" y="0" style="fill:#1e1e1e;font-size:20.02496910095215px;font-family:SourceSansPro-Regular, Source Sans Pro;font-weight:400;font-style:normal">’t </tspan><tspan x="290.62" y="0" style="fill:#1e1e1e;font-size:20.02496910095215px;font-family:SourceSansPro-Regular, Source Sans Pro;font-weight:400;font-style:normal;letter-spacing:-0.003998913785899047em">o</tspan><tspan x="301.39" y="0" style="fill:#1e1e1e;font-size:20.02496910095215px;font-family:SourceSansPro-Regular, Source Sans Pro;font-weight:400;font-style:normal">wn </tspan><tspan x="330.73" y="0" style="fill:#1e1e1e;font-size:20.02496910095215px;font-family:SourceSansPro-Regular, Source Sans Pro;font-weight:400;font-style:normal;letter-spacing:-0.01999456892949524em">s</tspan><tspan x="338.72" y="0" style="fill:#1e1e1e;font-size:20.02496910095215px;font-family:SourceSansPro-Regular, Source Sans Pro;font-weight:400;font-style:normal;letter-spacing:-0.013996198250646666em">t</tspan><tspan x="345.21" y="0" style="fill:#1e1e1e;font-size:20.02496910095215px;font-family:SourceSansPro-Regular, Source Sans Pro;font-weight:400;font-style:normal">oc</tspan><tspan x="365.19" y="0" style="fill:#1e1e1e;font-size:20.02496910095215px;font-family:SourceSansPro-Regular, Source Sans Pro;font-weight:400;font-style:normal;letter-spacing:0.01302085342481763em">k</tspan><tspan x="375.37" y="0" style="fill:#1e1e1e;font-size:20.02496910095215px;font-family:SourceSansPro-Regular, Source Sans Pro;font-weight:400;font-style:normal">.</tspan><tspan x="0" y="63.19">56%</tspan><tspan x="58.72" y="63.19" xml:space="preserve" style="fill:#1e1e1e;font-size:20.02496910095215px;font-family:SourceSansPro-Regular, Source Sans Pro;font-weight:400;font-style:normal"> of </tspan><tspan x="83.43" y="63.19" style="fill:#1e1e1e;font-size:20.02496910095215px;font-family:SourceSansPro-Regular, Source Sans Pro;font-weight:400;font-style:normal;letter-spacing:-0.003998913785899047em">w</tspan><tspan x="97.72" y="63.19" style="fill:#1e1e1e;font-size:20.02496910095215px;font-family:SourceSansPro-Regular, Source Sans Pro;font-weight:400;font-style:normal">omen do</tspan><tspan x="172.04" y="63.19" style="fill:#1e1e1e;font-size:20.02496910095215px;font-family:SourceSansPro-Regular, Source Sans Pro;font-weight:400;font-style:normal;letter-spacing:-0.01999456892949524em">n</tspan><tspan x="182.59" y="63.19" style="fill:#1e1e1e;font-size:20.02496910095215px;font-family:SourceSansPro-Regular, Source Sans Pro;font-weight:400;font-style:normal">’t ha</tspan><tspan x="219.33" y="63.19" style="fill:#1e1e1e;font-size:20.02496910095215px;font-family:SourceSansPro-Regular, Source Sans Pro;font-weight:400;font-style:normal;letter-spacing:-0.003998913785899047em">v</tspan><tspan x="228.61" y="63.19" style="fill:#1e1e1e;font-size:20.02496910095215px;font-family:SourceSansPro-Regular, Source Sans Pro;font-weight:400;font-style:normal">e a 401</tspan><tspan x="286.5" y="63.19" style="fill:#1e1e1e;font-size:20.02496910095215px;font-family:SourceSansPro-Regular, Source Sans Pro;font-weight:400;font-style:normal;letter-spacing:0.01302085342481763em">k</tspan><tspan x="296.67" y="63.19" style="fill:#1e1e1e;font-size:20.02496910095215px;font-family:SourceSansPro-Regular, Source Sans Pro;font-weight:400;font-style:normal;letter-spacing:-0.0000487672412914518em">.</tspan><tspan x="0" y="126.38">51%</tspan><tspan x="58.72" y="126.38" xml:space="preserve" style="fill:#1e1e1e;font-size:20.02496910095215px;font-family:SourceSansPro-Regular, Source Sans Pro;font-weight:400;font-style:normal"> of </tspan><tspan x="83.43" y="126.38" style="fill:#1e1e1e;font-size:20.02496910095215px;font-family:SourceSansPro-Regular, Source Sans Pro;font-weight:400;font-style:normal;letter-spacing:-0.003998913785899047em">w</tspan><tspan x="97.72" y="126.38" style="fill:#1e1e1e;font-size:20.02496910095215px;font-family:SourceSansPro-Regular, Source Sans Pro;font-weight:400;font-style:normal">omen ha</tspan><tspan x="171.05" y="126.38" style="fill:#1e1e1e;font-size:20.02496910095215px;font-family:SourceSansPro-Regular, Source Sans Pro;font-weight:400;font-style:normal;letter-spacing:-0.003998913785899047em">v</tspan><tspan x="180.33" y="126.38" style="fill:#1e1e1e;font-size:20.02496910095215px;font-family:SourceSansPro-Regular, Source Sans Pro;font-weight:400;font-style:normal;letter-spacing:0.0000487672412914518em">e less than $500 in savings.</tspan><tspan x="0" y="189.57">63%</tspan><tspan x="58.72" y="189.57" xml:space="preserve" style="fill:#1e1e1e;font-size:20.02496910095215px;font-family:SourceSansPro-Regular, Source Sans Pro;font-weight:400;font-style:normal"> of </tspan><tspan x="83.43" y="189.57" style="fill:#1e1e1e;font-size:20.02496910095215px;font-family:SourceSansPro-Regular, Source Sans Pro;font-weight:400;font-style:normal;letter-spacing:-0.003998913785899047em">w</tspan><tspan x="97.72" y="189.57" style="fill:#1e1e1e;font-size:20.02496910095215px;font-family:SourceSansPro-Regular, Source Sans Pro;font-weight:400;font-style:normal">omen </tspan><tspan x="150.07" y="189.57" style="fill:#1e1e1e;font-size:20.02496910095215px;font-family:SourceSansPro-Regular, Source Sans Pro;font-weight:400;font-style:normal;letter-spacing:-0.00999728446474762em">f</tspan><tspan x="155.71" y="189.57" style="fill:#1e1e1e;font-size:20.02496910095215px;font-family:SourceSansPro-Regular, Source Sans Pro;font-weight:400;font-style:normal;letter-spacing:0.0000487672412914518em">eel anxi</tspan><tspan x="219.59" y="189.57" style="fill:#1e1e1e;font-size:20.02496910095215px;font-family:SourceSansPro-Regular, Source Sans Pro;font-weight:400;font-style:normal;letter-spacing:-0.00999728446474762em">e</tspan><tspan x="229.33" y="189.57" style="fill:#1e1e1e;font-size:20.02496910095215px;font-family:SourceSansPro-Regular, Source Sans Pro;font-weight:400;font-style:normal">ty about mon</tspan><tspan x="341.54" y="189.57" style="fill:#1e1e1e;font-size:20.02496910095215px;font-family:SourceSansPro-Regular, Source Sans Pro;font-weight:400;font-style:normal;letter-spacing:0.005023025853019535em">e</tspan><tspan x="351.58" y="189.57" style="fill:#1e1e1e;font-size:20.02496910095215px;font-family:SourceSansPro-Regular, Source Sans Pro;font-weight:400;font-style:normal;letter-spacing:-0.03501487924726239em">y</tspan><tspan x="360.23" y="189.57" style="fill:#1e1e1e;font-size:20.02496910095215px;font-family:SourceSansPro-Regular, Source Sans Pro;font-weight:400;font-style:normal">.</tspan><tspan x="0" y="252.76">85%</tspan><tspan x="58.72" y="252.76" xml:space="preserve" style="fill:#1e1e1e;font-size:20.02496910095215px;font-family:SourceSansPro-Regular, Source Sans Pro;font-weight:400;font-style:normal"> of </tspan><tspan x="83.43" y="252.76" style="fill:#1e1e1e;font-size:20.02496910095215px;font-family:SourceSansPro-Regular, Source Sans Pro;font-weight:400;font-style:normal;letter-spacing:-0.02096991375532427em">c</tspan><tspan x="92.14" y="252.76" style="fill:#1e1e1e;font-size:20.02496910095215px;font-family:SourceSansPro-Regular, Source Sans Pro;font-weight:400;font-style:normal">onsumer pu</tspan><tspan x="192.72" y="252.76" style="fill:#1e1e1e;font-size:20.02496910095215px;font-family:SourceSansPro-Regular, Source Sans Pro;font-weight:400;font-style:normal;letter-spacing:-0.00999728446474762em">r</tspan><tspan x="199.47" y="252.76" style="fill:#1e1e1e;font-size:20.02496910095215px;font-family:SourceSansPro-Regular, Source Sans Pro;font-weight:400;font-style:normal">chases a</tspan><tspan x="270.4" y="252.76" style="fill:#1e1e1e;font-size:20.02496910095215px;font-family:SourceSansPro-Regular, Source Sans Pro;font-weight:400;font-style:normal;letter-spacing:-0.00999728446474762em">r</tspan><tspan x="277.14" y="252.76" style="fill:#1e1e1e;font-size:20.02496910095215px;font-family:SourceSansPro-Regular, Source Sans Pro;font-weight:400;font-style:normal;letter-spacing:0.0000487672412914518em">e made </tspan><tspan x="342.83" y="252.76" style="fill:#1e1e1e;font-size:20.02496910095215px;font-family:SourceSansPro-Regular, Source Sans Pro;font-weight:400;font-style:normal;letter-spacing:-0.003998913785899047em">b</tspan><tspan x="353.82" y="252.76" style="fill:#1e1e1e;font-size:20.02496910095215px;font-family:SourceSansPro-Regular, Source Sans Pro;font-weight:400;font-style:normal">y </tspan><tspan x="367.17" y="252.76" style="fill:#1e1e1e;font-size:20.02496910095215px;font-family:SourceSansPro-Regular, Source Sans Pro;font-weight:400;font-style:normal;letter-spacing:-0.003998913785899047em">w</tspan><tspan x="381.47" y="252.76" style="fill:#1e1e1e;font-size:20.02496910095215px;font-family:SourceSansPro-Regular, Source Sans Pro;font-weight:400;font-style:normal">omen.</tspan></text></g></svg>