<svg xmlns="http://www.w3.org/2000/svg" viewBox="0 0 550 500"><title>gender-shapes</title><g id="mockup"><rect x="5.7" y="5.36" width="538.6" height="489.29" style="fill:none;stroke:#ffb9a6;stroke-miterlimit:10;stroke-width:3px"/><path d="M171.58,245.75c0-14.54,9.18-23.17,21-23.17A18.29,18.29,0,0,1,206,228.22l-4.21,5.1a12,12,0,0,0-9-3.88c-7.89,0-13.19,6.12-13.19,16.11s4.69,16.24,13.6,16.24a9.8,9.8,0,0,0,6.38-2v-9.58h-8.42v-6.46h15.49v19.58c-3,3-8.15,5.3-14.2,5.3C180.49,268.66,171.58,260.5,171.58,245.75Z" style="fill:#fff3ee"/><path d="M213.73,251.19c0-10.87,7.54-17.53,15.36-17.53,9,0,13.79,6.52,13.79,15.83a17.84,17.84,0,0,1-.34,3.81h-21.2c.68,5.91,4.48,9.31,9.85,9.31a13.89,13.89,0,0,0,7.75-2.45l2.65,4.9a21.09,21.09,0,0,1-11.42,3.6C220.93,268.66,213.73,262.2,213.73,251.19ZM236.09,248c0-5.17-2.25-8.29-6.8-8.29-3.94,0-7.34,2.92-8,8.29Z" style="fill:#fff3ee"/><path d="M250.36,234.47h6.46l.54,4.49h.27c3-2.92,6.39-5.3,10.94-5.3,7.14,0,10.27,4.82,10.27,13.25v20.93H271V247.93c0-5.51-1.56-7.54-5.23-7.54-2.92,0-4.83,1.42-7.61,4.14v23.31h-7.82Z" style="fill:#fff3ee"/><path d="M286.38,251.19c0-10.87,6.87-17.53,14.14-17.53,3.81,0,6.19,1.42,8.77,3.67L309,232v-12.1h7.81v48h-6.45l-.55-3.6h-.27c-2.45,2.45-5.85,4.42-9.45,4.42C291.75,268.66,286.38,262.2,286.38,251.19ZM309,258.46V242.9a10,10,0,0,0-6.8-2.79c-4.28,0-7.75,4-7.75,11,0,7.21,2.72,11.08,7.55,11.08C304.6,262.2,306.77,261.05,309,258.46Z" style="fill:#fff3ee"/><path d="M324.58,251.19c0-10.87,7.55-17.53,15.36-17.53,9,0,13.8,6.52,13.8,15.83a18.52,18.52,0,0,1-.34,3.81H332.2c.68,5.91,4.48,9.31,9.85,9.31a13.92,13.92,0,0,0,7.75-2.45l2.65,4.9a21.14,21.14,0,0,1-11.42,3.6C331.79,268.66,324.58,262.2,324.58,251.19ZM346.94,248c0-5.17-2.24-8.29-6.79-8.29-3.94,0-7.34,2.92-8,8.29Z" style="fill:#fff3ee"/><path d="M361.22,234.47h6.45l.55,5.92h.27c2.38-4.35,5.91-6.73,9.45-6.73a8.39,8.39,0,0,1,3.8.68l-1.36,6.79a10.87,10.87,0,0,0-3.46-.54c-2.65,0-5.85,1.83-7.89,6.86v20.39h-7.81Z" style="fill:#fff3ee"/></g></svg>